<?xml version="1.0" encoding="UTF-8" standalone="no"?>
<!-- Created with Inkscape (http://www.inkscape.org/) -->

<svg
   width="107.10325mm"
   height="45.128792mm"
   viewBox="0 0 107.10325 45.128792"
   version="1.1"
   id="svg1"
   xmlns="http://www.w3.org/2000/svg"
   xmlns:svg="http://www.w3.org/2000/svg">
  <defs
     id="defs1" />
  <g
     id="layer1"
     transform="translate(-25.220758,-34.871802)">
    <path
       id="text1-3"
       style="font-size:60.4724px;font-family:Milkshake;-inkscape-font-specification:Milkshake;white-space:pre;fill:#9b68ab;fill-opacity:1;stroke:none;stroke-width:0.233449;stroke-opacity:1"
       d="m 50.291606,34.892899 c -1.739428,0.131123 -3.444728,0.849196 -4.701172,2.068359 -4.697717,0.377833 -9.63313,1.368938 -13.35026,4.457733 -2.631046,2.314673 -3.685866,6.472585 -1.92455,9.60832 0.141899,0.433296 0.874473,0.958134 0.07689,1.093631 -2.790679,1.436336 -5.213094,4.222823 -5.171219,7.502425 0.111236,3.451047 2.617756,6.306029 5.424055,8.05043 3.931198,2.467424 9.346496,2.886607 13.30666,0.254305 1.242255,-0.804506 2.305143,-1.871704 3.16577,-3.072313 1.244592,2.829827 4.159649,4.821691 7.262596,4.871047 2.055779,0.09731 4.133021,-0.525339 5.809669,-1.714797 3.143646,2.121889 7.506068,2.257642 10.775391,0.333985 2.792237,0.11868 5.611881,-0.787396 7.824219,-2.492188 1.97991,3.278309 6.362718,4.610557 9.939453,3.474609 -1.273513,2.065792 -1.283223,4.801546 -9.93e-4,6.866445 1.716645,2.9566 5.459986,4.352878 8.743316,3.608328 3.132409,-0.62148 5.719529,-2.942354 7.103379,-5.763835 0.82009,-1.490325 1.33818,-3.144347 1.91406,-4.716797 0.45692,-0.199905 0.89355,-0.851873 1.38237,-0.430813 2.12637,1.053682 4.92841,1.242201 6.9067,-0.225437 0.3904,-0.348223 0.70273,-0.778027 0.9414,-1.242187 3.05642,2.909923 8.17419,3.010027 11.5073,0.50665 1.99555,-1.422423 3.66288,-3.346286 4.74807,-5.541856 0.88838,-2.121533 0.0525,-4.956716 -2.16943,-5.861279 -0.72191,-0.373808 -1.69301,-0.384762 -2.38672,-0.427734 0.49994,-2.30792 -0.0496,-4.905774 -1.80902,-6.559759 -1.97864,-2.058485 -5.18926,-2.776944 -7.85801,-1.762262 -0.80637,0.19999 -1.53878,0.611159 -2.31735,0.89038 -2.06507,-1.366289 -5.25594,-1.268767 -6.82421,0.8125 -1.67278,-1.467032 -4.04186,-2.687184 -6.28907,-1.880859 -1.0128,0.349834 -1.92249,1.017267 -2.521479,1.910156 -1.65212,-1.580257 -4.11767,-2.716602 -6.38825,-1.846783 -1.152845,0.415304 -2.125054,1.285526 -2.699641,2.364361 -1.083324,-0.891697 -2.53303,-1.335546 -3.929688,-1.177734 -0.904651,-3.268397 -4.97007,-5.420674 -8.098079,-3.868128 -1.914465,0.940508 -3.181674,2.92246 -3.495671,5.002893 -2.584842,-2.668583 -6.761763,-3.238401 -10.17793,-2.032196 -3.477281,1.166345 -6.331969,3.9458 -7.736132,7.317353 -0.05299,-0.448588 -0.406066,-0.950237 -0.337588,-1.346139 2.52245,-2.671593 3.480639,-6.438148 6.224307,-8.929252 1.271902,-0.33749 2.805464,-0.515342 3.54813,-1.761726 1.418708,-1.806334 1.008775,-4.634497 -0.745256,-6.074738 -2.201117,-2.289684 -6.022939,-2.470083 -8.609331,-0.731036 -0.646538,0.362047 -1.24083,0.809636 -1.814637,1.276484 -1.013738,-1.84206 -3.14707,-3.004731 -5.248047,-2.810546 z" />
    <path
       id="text1"
       style="font-size:60.4724px;font-family:Milkshake;-inkscape-font-specification:Milkshake;white-space:pre;fill:#ffffff;fill-opacity:1;stroke:none;stroke-width:0.233;stroke-dasharray:none;stroke-opacity:1"
       d="m 50.628435,38.592293 c -0.572727,0 -1.120903,0.136915 -1.643827,0.410828 -0.522925,0.249012 -1.070584,0.759753 -1.643311,1.53169 -0.921344,0.0249 -1.917181,0.09925 -2.987932,0.223758 -1.07075,0.124507 -2.12915,0.311678 -3.175,0.56069 -1.045849,0.22411 -2.054509,0.510246 -3.025655,0.858862 -0.971145,0.348616 -1.830068,0.784489 -2.577103,1.307414 -0.722134,0.498023 -1.307227,1.070811 -1.755448,1.718241 -0.448222,0.647431 -0.672311,1.381744 -0.672311,2.203483 0,0.871541 0.211266,1.630983 0.634587,2.278414 0.448221,0.647431 0.983574,1.195606 1.606103,1.643827 0.62253,0.42332 1.25788,0.74689 1.90531,0.971001 0.647431,0.22411 1.19509,0.335897 1.643311,0.335897 0.498024,0 0.747241,-0.161527 0.747241,-0.485242 0,-0.149407 -0.07487,-0.274017 -0.224275,-0.373621 l -0.373621,-0.29869 c -0.273914,-0.249011 -0.560049,-0.572581 -0.858863,-0.971 -0.298814,-0.398418 -0.448551,-0.996334 -0.448551,-1.793172 0,-0.697233 0.124609,-1.31976 0.37362,-1.867586 0.249012,-0.547827 0.572582,-1.00831 0.971001,-1.381828 0.42332,-0.398419 0.896627,-0.734811 1.419551,-1.008724 0.522925,-0.273913 1.058278,-0.498002 1.606104,-0.67231 1.269959,-0.423321 2.726798,-0.659716 4.370276,-0.709518 -0.249012,0.373518 -0.522842,0.946305 -0.821655,1.718241 -0.273914,0.647431 -0.598,1.543788 -0.971517,2.689242 -0.348617,1.120553 -0.771667,2.552263 -1.26969,4.295345 -0.348617,1.294861 -0.734749,2.627091 -1.158069,3.996655 -0.42332,1.344664 -0.921239,2.577413 -1.493966,3.697966 -0.572727,1.120553 -1.244995,2.04152 -2.016931,2.763657 -0.771937,0.722133 -1.693422,1.083653 -2.764172,1.083653 -0.722135,0 -1.369274,-0.261526 -1.942001,-0.784449 -0.547826,-0.547827 -0.822172,-1.294961 -0.822172,-2.241206 0,-0.448221 0.08718,-0.884093 0.261483,-1.307413 0.174308,-0.42332 0.373786,-0.821759 0.597896,-1.195277 0.249012,-0.398418 0.510536,-0.747117 0.784448,-1.04593 0.273913,-0.298814 0.510309,-0.53521 0.709518,-0.709518 l 0.560173,-0.560172 c 0.124505,-0.149407 0.187068,-0.323757 0.187068,-0.522966 0,-0.149407 -0.08717,-0.274016 -0.261482,-0.373621 -0.174309,-0.124505 -0.398398,-0.186552 -0.672311,-0.186552 -0.547826,0 -1.195482,0.136915 -1.942517,0.410828 -0.747036,0.249012 -1.469043,0.59771 -2.166276,1.045931 -0.672331,0.448222 -1.245119,0.99588 -1.718241,1.64331 -0.473123,0.62253 -0.709518,1.307103 -0.709518,2.054139 0,0.64743 0.236395,1.344827 0.709518,2.091862 0.473122,0.747036 1.107955,1.444431 1.904793,2.091862 0.796838,0.647432 1.718322,1.195086 2.764172,1.643308 1.04585,0.423323 2.141684,0.635109 3.287138,0.635109 1.668379,0 3.062654,-0.348698 4.183207,-1.045932 1.120553,-0.722138 2.029216,-1.655926 2.726449,-2.801382 0.722134,-1.145453 1.294921,-2.440248 1.718241,-3.884517 0.42332,-1.444268 0.784324,-2.901106 1.083138,-4.370276 h 1.344621 0.03772 c 0.0996,0.124506 0.211391,0.286549 0.335897,0.485758 0.149406,0.19921 0.274016,0.47304 0.37362,0.821656 0.124506,0.323715 0.223987,0.734459 0.29869,1.232483 0.0996,0.498023 0.149345,1.095939 0.149345,1.793172 0,1.070751 0.05026,2.078894 0.149861,3.025138 0.124507,0.94624 0.373207,1.768249 0.746725,2.465483 0.373518,0.697234 0.90887,1.257198 1.606104,1.680516 0.697236,0.398419 1.61872,0.597901 2.76417,0.597901 0.871539,0 1.680726,-0.236912 2.427762,-0.710039 0.771935,-0.47312 1.444203,-0.995647 2.016928,-1.568378 0.289549,-0.300686 0.571854,-0.621687 0.846462,-0.962213 0.0042,0.0094 0.0086,0.01909 0.01292,0.02842 0.323712,0.647432 0.746764,1.207396 1.269687,1.680516 0.547827,0.473126 1.170354,0.846956 1.867588,1.120866 0.722132,0.273911 1.469268,0.410829 2.241202,0.410829 0.796839,0 1.556285,-0.124608 2.278417,-0.373627 0.722132,-0.27391 1.382096,-0.647215 1.979725,-1.120341 0.522923,0.07471 1.008538,0.111618 1.45676,0.111618 1.095654,0 2.041752,-0.161526 2.838584,-0.485238 0.821738,-0.323719 1.506828,-0.697543 2.054655,-1.120861 0.644183,-0.44598 1.177068,-0.978266 1.599385,-1.596804 0.0019,-0.0028 0.0038,-0.0055 0.0057,-0.0083 2.34e-4,-3.45e-4 8.03e-4,-6.88e-4 10e-4,-0.001 0.398414,-0.572727 0.920966,-1.431677 1.568377,-2.577103 0.64744,-1.170356 1.33253,-2.664628 2.05467,-4.482415 0.42332,0.0498 0.79663,0.112366 1.12035,0.187069 0.27392,0.0747 0.52313,0.161878 0.74725,0.261483 0.24901,0.09961 0.37362,0.248825 0.37362,0.448035 0,0.298814 -0.12461,0.684947 -0.37362,1.158069 -0.24902,0.448221 -0.52285,0.971268 -0.82166,1.568896 -0.27392,0.597629 -0.53544,1.257073 -0.78446,1.979208 -0.24901,0.722134 -0.37362,1.494397 -0.37362,2.316136 0,0.522923 0.11178,1.008538 0.3359,1.45676 0.22411,0.448222 0.5482,0.84666 0.97152,1.195277 0.42332,0.323713 0.92124,0.585239 1.49397,0.784449 0.57274,0.199209 1.21987,0.298691 1.94202,0.298691 0.92135,0 1.76797,-0.236912 2.53991,-0.710039 0.79684,-0.47312 1.48193,-0.995647 2.05466,-1.568378 0.13945,-0.13945 0.27622,-0.283478 0.41032,-0.431495 0.058,0.17202 0.13299,0.340655 0.22479,0.505912 0.24902,0.448215 0.56028,0.834349 0.9338,1.158068 0.37352,0.323713 0.78427,0.572929 1.23249,0.747241 0.473118,0.199209 0.921308,0.298691 1.344628,0.298691 0.47312,0 0.94644,-0.08718 1.41956,-0.261483 0.49803,-0.149407 0.97082,-0.348883 1.41904,-0.597901 0.44823,-0.27391 0.85897,-0.572354 1.23249,-0.896067 0.39843,-0.348617 0.74712,-0.697314 1.045931,-1.045932 -0.0996,0.448222 -0.211391,0.983572 -0.335891,1.606106 -0.12451,0.622527 -0.28655,1.282485 -0.48576,1.979719 -1.12057,0.448222 -2.16615,0.883578 -3.13729,1.306902 -0.94626,0.448222 -1.76827,0.909223 -2.465498,1.382343 -0.69724,0.473126 -1.2449,0.97104 -1.64332,1.493968 -0.37353,0.547821 -0.56018,1.132918 -0.56018,1.755445 0,0.498024 0.11178,0.959026 0.3359,1.382343 0.22411,0.448222 0.52307,0.821534 0.89659,1.120348 0.39842,0.323713 0.8466,0.572929 1.344628,0.747241 0.52293,0.199209 1.07059,0.298691 1.64332,0.298691 1.12056,0 2.09179,-0.286653 2.91353,-0.859378 0.84664,-0.572725 1.568661,-1.307044 2.166291,-2.203488 0.59763,-0.896437 1.09607,-1.917403 1.49449,-3.062859 0.42332,-1.120551 0.79664,-2.240998 1.12035,-3.361556 1.71819,-0.896444 3.10017,-1.793314 4.14602,-2.689757 0.25132,-0.221384 0.49105,-0.440878 0.71935,-0.65939 -0.006,0.171445 -0.01,0.341199 -0.01,0.510044 0,0.597629 0.33639,1.096067 1.00873,1.494487 0.67234,0.373515 1.50665,0.560174 2.5027,0.560174 0.27392,0 0.47287,-0.04974 0.59738,-0.149346 0.1494,-0.07471 0.22428,-0.274182 0.22428,-0.597901 0,-1.792881 0.18665,-3.398937 0.56017,-4.818308 0.39842,-1.444269 0.88403,-2.664195 1.45676,-3.660242 0.59763,-1.020948 1.22015,-1.793213 1.86758,-2.316138 0.67234,-0.547825 1.29487,-0.821655 1.86759,-0.821655 0.19921,0 0.37355,0.06205 0.52297,0.186552 0.1494,0.09961 0.22427,0.237037 0.22427,0.411344 0,0.572728 -0.1,1.170127 -0.29921,1.792656 -0.19921,0.597628 -0.4233,1.232462 -0.67231,1.904793 -0.22411,0.672332 -0.43537,1.369728 -0.63458,2.091862 -0.19921,0.697233 -0.29921,1.431545 -0.29921,2.203485 0,1.045845 0.43588,1.942722 1.30742,2.689758 0.87154,0.722132 2.01711,1.08314 3.43648,1.08314 0.92134,0 1.76796,-0.236912 2.5399,-0.710039 0.79683,-0.47312 1.4814,-0.995647 2.05413,-1.568378 0.67233,-0.67233 1.28256,-1.444598 1.83038,-2.316138 0.0498,-0.124506 0.0995,-0.236292 0.14935,-0.335897 0.0498,-0.0996 0.0872,-0.186779 0.11214,-0.261483 0.0498,-0.0996 0.0749,-0.199085 0.0749,-0.298689 0,-0.19921 -0.0872,-0.373559 -0.26148,-0.522966 -0.1494,-0.149407 -0.32375,-0.224275 -0.52296,-0.224275 -0.12451,0 -0.23681,0.03743 -0.33642,0.112138 -0.0996,0.0498 -0.17447,0.09954 -0.22427,0.149344 -0.0996,0.0996 -0.16164,0.18678 -0.18655,0.261483 -0.37353,0.62253 -0.78427,1.157884 -1.23249,1.606103 -0.37351,0.423324 -0.80938,0.796629 -1.30741,1.120348 -0.47312,0.323713 -0.95873,0.485758 -1.45676,0.485758 -0.37351,0 -0.67248,-0.124608 -0.89658,-0.373621 -0.19921,-0.27391 -0.29869,-0.622613 -0.29869,-1.045931 0,-0.672335 0.0995,-1.344601 0.29869,-2.016933 0.2241,-0.697233 0.44819,-1.381806 0.67231,-2.054138 0.249,-0.672331 0.47309,-1.319987 0.6723,-1.942517 0.22412,-0.647431 0.33642,-1.257135 0.33642,-1.829863 0,-0.373517 -0.0872,-0.747344 -0.26148,-1.120861 -0.17431,-0.373518 -0.41071,-0.709393 -0.70952,-1.008207 -0.29882,-0.323715 -0.64751,-0.58524 -1.04593,-0.784449 -0.37352,-0.199209 -0.75965,-0.299206 -1.15807,-0.299206 -0.79684,0 -1.54398,0.124609 -2.24121,0.37362 -0.69723,0.249012 -1.31976,0.522842 -1.86758,0.821656 -0.64744,0.348616 -1.23253,0.747054 -1.75545,1.195276 -0.57273,-0.896442 -1.08296,-1.456407 -1.53117,-1.680518 -0.44823,-0.22411 -0.80923,-0.336414 -1.08314,-0.336414 -0.47313,0 -0.80951,0.236912 -1.00873,0.710035 -0.22411,0.522925 -0.51025,1.244932 -0.85887,2.166275 -0.32372,0.921344 -0.6478,1.930004 -0.97152,3.025656 -0.3203,1.059465 -0.59163,2.167363 -0.81443,3.324345 -0.49416,0.634859 -1.06945,1.26993 -1.72548,1.904792 -0.77194,0.722132 -1.75548,1.431837 -2.95074,2.129071 l 0.44855,-1.681034 c 0.27392,-0.921342 0.54775,-1.904876 0.82166,-2.950726 0.29882,-1.045849 0.56035,-2.029381 0.78446,-2.950724 0.22411,-0.946245 0.41077,-1.76825 0.56017,-2.465483 0.14941,-0.697233 0.22376,-1.182845 0.22376,-1.456758 0,-0.149407 -0.0995,-0.336062 -0.29869,-0.560172 -0.19921,-0.249013 -0.44791,-0.485408 -0.74673,-0.709518 -0.29881,-0.224111 -0.6229,-0.423588 -0.97152,-0.597897 -0.32372,-0.174308 -0.62216,-0.261482 -0.89608,-0.261482 -0.249,0 -0.4731,0.06256 -0.67231,0.187068 -0.19921,0.124506 -0.32382,0.298856 -0.37362,0.522966 -0.19921,0.647431 -0.411,1.369439 -0.63511,2.166276 -0.19921,0.796838 -0.43561,1.618843 -0.70952,2.465483 -0.24902,0.821739 -0.52285,1.643227 -0.82166,2.464966 -0.29881,0.796837 -0.6229,1.518845 -0.971521,2.166275 -0.14941,0.298814 -0.34837,0.610077 -0.59739,0.933794 -0.24901,0.298815 -0.52284,0.585468 -0.82166,0.859378 -0.29881,0.249012 -0.61008,0.460279 -0.9338,0.634584 -0.32371,0.149414 -0.63497,0.224281 -0.93379,0.224281 -0.27391,0 -0.4857,-0.111791 -0.63511,-0.335899 -0.1494,-0.224114 -0.22428,-0.48564 -0.22428,-0.784449 0,-0.82174 0.12462,-1.681177 0.37362,-2.577619 0.24902,-0.896442 0.52285,-1.767671 0.82167,-2.614311 0.32371,-0.84664 0.61037,-1.631211 0.85938,-2.353345 0.24901,-0.722134 0.37311,-1.332356 0.37311,-1.830379 0,-0.149407 -0.0995,-0.336062 -0.2987,-0.560172 -0.19921,-0.249013 -0.44791,-0.485408 -0.74672,-0.709518 -0.29882,-0.224111 -0.6229,-0.423588 -0.97153,-0.597897 -0.34861,-0.174308 -0.65988,-0.261482 -0.9338,-0.261482 -0.22411,0 -0.42307,0.07487 -0.59738,0.224275 -0.1743,0.124506 -0.31122,0.28655 -0.41083,0.485759 -0.224108,0.522925 -0.510758,1.244933 -0.859378,2.166276 -0.32372,0.921343 -0.63498,1.904875 -0.9338,2.950724 -0.29881,1.020949 -0.56034,2.029609 -0.78445,3.025656 -0.0549,0.24386 -0.10275,0.477826 -0.14418,0.702282 -0.32389,0.499712 -0.67447,0.938015 -1.05111,1.314648 -0.37352,0.423324 -0.80887,0.796629 -1.3069,1.120348 -0.47312,0.323713 -0.95874,0.485758 -1.45677,0.485758 -0.37352,0 -0.67248,-0.112305 -0.89659,-0.336412 -0.22411,-0.224114 -0.33641,-0.547685 -0.33641,-0.971003 0,-0.747034 0.13743,-1.494172 0.41134,-2.241207 0.29882,-0.771937 0.62239,-1.506251 0.97101,-2.203484 0.34862,-0.697233 0.65988,-1.332066 0.9338,-1.904793 0.29882,-0.597628 0.44803,-1.108369 0.44803,-1.53169 0,-0.498023 -0.14921,-0.921073 -0.44803,-1.269689 -0.27392,-0.348617 -0.63492,-0.522966 -1.08315,-0.522966 -0.2241,0 -0.43589,0.02461 -0.6351,0.07442 -0.19921,0.0498 -0.411,0.112365 -0.63511,0.187068 -0.22411,0.0498 -0.48564,0.09954 -0.78445,0.149345 -0.27392,0.0498 -0.62262,0.07441 -1.04594,0.07441 -0.44823,0 -0.82154,-0.06205 -1.12035,-0.186552 -0.29882,-0.124506 -0.44804,-0.323983 -0.44804,-0.597896 0,-0.298814 0.0744,-0.610078 0.22376,-0.933794 0.17431,-0.323715 0.26148,-0.734459 0.26148,-1.232482 0,-0.174309 -0.0743,-0.37327 -0.22375,-0.59738 -0.14942,-0.249012 -0.33658,-0.460795 -0.5607,-0.635103 -0.22411,-0.19921 -0.47281,-0.361253 -0.74673,-0.485759 -0.27391,-0.149407 -0.53544,-0.223759 -0.78445,-0.223759 -0.22411,0 -0.46051,0.07435 -0.70952,0.223759 -0.24901,0.149407 -0.48593,0.348885 -0.71004,0.597897 -0.22411,0.249011 -0.410764,0.547452 -0.560171,0.896069 -0.124503,0.323715 -0.186554,0.672414 -0.186554,1.045931 0,0.473123 0.06205,0.884383 0.186554,1.233 0.124509,0.348616 0.261421,0.634751 0.410831,0.858862 0.17431,0.273913 0.38609,0.498002 0.6351,0.67231 -0.54783,1.767984 -1.145227,3.199694 -1.792653,4.295345 -0.532687,0.916224 -0.965462,1.622891 -1.297599,2.119767 -0.08375,0.08803 -0.136603,0.165954 -0.159161,0.233578 -0.398413,0.473108 -0.821996,0.896182 -1.270206,1.26969 -0.398419,0.323714 -0.858902,0.622671 -1.38183,0.896587 -0.522923,0.249012 -1.10802,0.37362 -1.755445,0.37362 h -0.336218 c -0.0747,-0.02488 -0.161878,-0.05002 -0.261483,-0.07493 0.722138,-0.946246 1.282615,-1.967213 1.681034,-3.062864 0.423324,-1.095652 0.634591,-2.14123 0.634591,-3.137276 0,-0.846641 -0.149222,-1.606082 -0.448037,-2.278415 -0.273916,-0.697232 -0.66005,-1.282325 -1.158069,-1.755448 -0.473126,-0.498023 -1.045394,-0.87185 -1.717723,-1.120862 -0.672336,-0.249011 -1.394858,-0.37362 -2.166792,-0.37362 -0.971151,0 -1.966983,0.211784 -2.98793,0.635103 -1.020947,0.42332 -1.954741,1.045848 -2.801383,1.867587 -0.846641,0.821738 -1.544036,1.842704 -2.091862,3.062862 -0.504103,1.152233 -0.76527,2.47819 -0.783411,3.977535 -0.433874,0.523593 -0.894733,0.965739 -1.382862,1.326533 -0.572732,0.423324 -1.133214,0.635103 -1.681035,0.635103 -0.647432,0 -1.232528,-0.348697 -1.755451,-1.04593 -0.498024,-0.697233 -0.859025,-1.904853 -1.083139,-3.623035 -0.124503,-0.796837 -0.273725,-1.469105 -0.448031,-2.016931 -0.149407,-0.572727 -0.323756,-1.033728 -0.522966,-1.382345 -0.199209,-0.348615 -0.398685,-0.622445 -0.597898,-0.821655 -0.174308,-0.199209 -0.335835,-0.34843 -0.485241,-0.448034 0.597629,-0.298814 1.132979,-0.672641 1.606105,-1.120862 0.47312,-0.473123 0.933609,-1.008476 1.381825,-1.606104 0.448222,-0.622529 0.884096,-1.307103 1.307414,-2.054138 0.423318,-0.747035 0.883806,-1.543912 1.381831,-2.390552 0.597629,-1.07075 1.170416,-1.917367 1.718236,-2.539896 0.547833,-0.647431 1.058575,-1.145349 1.531695,-1.493966 0.498025,-0.348616 0.946197,-0.572706 1.344617,-0.67231 0.398419,-0.124506 0.759426,-0.187069 1.083139,-0.187069 0.373515,0 0.560174,-0.161526 0.560174,-0.485241 0,-0.09961 -0.06205,-0.249342 -0.186554,-0.448552 -0.124503,-0.199209 -0.298857,-0.385864 -0.522965,-0.560173 -0.19921,-0.199209 -0.436122,-0.361252 -0.710032,-0.485758 -0.273911,-0.149407 -0.547741,-0.223759 -0.821657,-0.223759 -0.572731,0 -1.132695,0.09948 -1.680516,0.29869 -0.547827,0.199209 -1.108309,0.522778 -1.681034,0.971 -0.572725,0.448221 -1.182955,1.046137 -1.83038,1.793172 -0.647438,0.747035 -1.344314,1.668004 -2.091344,2.763655 -0.448222,0.647431 -0.921528,1.320216 -1.419552,2.017449 -0.498026,0.697233 -1.021073,1.356678 -1.568899,1.979207 -0.547825,0.622529 -1.132919,1.183011 -1.755448,1.681034 -0.597628,0.498024 -1.232461,0.896462 -1.904794,1.195276 0.273914,-1.444268 0.498003,-2.677017 0.672311,-3.697966 0.174308,-1.045848 0.323529,-1.917077 0.448035,-2.61431 0.149407,-0.697233 0.286321,-1.245409 0.410827,-1.643827 0.124506,-0.398419 0.261421,-0.672249 0.410828,-0.821656 0.273913,-0.0747 0.572871,-0.186489 0.896586,-0.335897 0.323715,-0.149406 0.622673,-0.336578 0.896586,-0.560689 0.298815,-0.22411 0.535209,-0.472811 0.709518,-0.746724 0.199209,-0.298814 0.298689,-0.622384 0.298689,-0.971 0,-0.498024 -0.161526,-0.896462 -0.485241,-1.195276 -0.32369,-0.298818 -0.771869,-0.448555 -1.344596,-0.448555 z m 18.003551,14.343311 c 0.423323,0 0.771502,0.186655 1.045418,0.560173 0.273911,0.348616 0.410823,0.946015 0.410823,1.792655 0,0.821739 -0.09948,1.768353 -0.298685,2.839103 -0.19921,1.045849 -0.48535,2.041687 -0.858865,2.987931 -0.149408,-0.0498 -0.286326,-0.07441 -0.410829,-0.07441 -0.149407,0 -0.33606,0.06205 -0.560174,0.186552 -0.199209,0.0996 -0.398685,0.23652 -0.597894,0.410828 -0.19921,0.174305 -0.373553,0.373267 -0.522966,0.597381 -0.124503,0.224108 -0.186554,0.435894 -0.186554,0.635104 0,0.323712 0.211273,0.622675 0.63459,0.896585 -0.373515,0.298815 -0.75913,0.448031 -1.157549,0.448031 -0.572732,0 -1.02091,-0.236393 -1.344623,-0.709513 -0.298815,-0.473127 -0.448555,-1.083344 -0.448555,-1.830381 0,-1.26996 0.136918,-2.427841 0.410828,-3.47369 0.298815,-1.070751 0.660335,-1.991719 1.083658,-2.763656 0.448216,-0.796838 0.921009,-1.407058 1.419033,-1.830379 0.498025,-0.448221 0.959026,-0.67231 1.382344,-0.67231 z m 29.955903,16.173174 c -0.22412,0.67233 -0.47282,1.319984 -0.74673,1.942517 -0.27392,0.647426 -0.57287,1.20739 -0.89659,1.680516 -0.32372,0.473126 -0.67242,0.84695 -1.04594,1.12086 -0.37352,0.298815 -0.75965,0.448037 -1.15808,0.448037 -0.44822,0 -0.6723,-0.249216 -0.6723,-0.74724 0,-0.249012 0.11229,-0.560273 0.33641,-0.933794 0.22412,-0.348617 0.53538,-0.721929 0.9338,-1.120348 0.39842,-0.39842 0.87121,-0.809162 1.41904,-1.232479 0.54783,-0.39842 1.15806,-0.784554 1.83039,-1.158069 z" />
  </g>
</svg>
