<?xml version="1.0" encoding="UTF-8" standalone="no"?>
<!-- Created with Inkscape (http://www.inkscape.org/) -->

<svg
   width="11in"
   height="8.5in"
   viewBox="0 0 1056 816"
   version="1.1"
   id="svg1"
   inkscape:version="1.4.4 (dcaf3e7d9e, 2026-05-05)"
   sodipodi:docname="np-launch-criccut-example-sofia-d-cut.svg"
   xmlns:inkscape="http://www.inkscape.org/namespaces/inkscape"
   xmlns:sodipodi="http://sodipodi.sourceforge.net/DTD/sodipodi-0.dtd"
   xmlns="http://www.w3.org/2000/svg"
   xmlns:svg="http://www.w3.org/2000/svg">
  <sodipodi:namedview
     id="namedview1"
     pagecolor="#ffffff"
     bordercolor="#000000"
     borderopacity="0.25"
     inkscape:showpageshadow="2"
     inkscape:pageopacity="0.0"
     inkscape:pagecheckerboard="0"
     inkscape:deskcolor="#d1d1d1"
     inkscape:document-units="in"
     inkscape:zoom="0.48498212"
     inkscape:cx="425.78889"
     inkscape:cy="461.8727"
     inkscape:window-width="1536"
     inkscape:window-height="795"
     inkscape:window-x="0"
     inkscape:window-y="0"
     inkscape:window-maximized="1"
     inkscape:current-layer="layer1" />
  <defs
     id="defs1" />
  <g
     inkscape:label="Layer 1"
     inkscape:groupmode="layer"
     id="layer1">
    <path
       id="text2-1"
       style="font-size:60.4724px;font-family:Milkshake;-inkscape-font-specification:Milkshake;writing-mode:lr-tb;direction:ltr;white-space:pre;shape-inside:url(#rect2);display:inline;fill:none;fill-opacity:1;stroke:#ffffff;stroke-width:3.77952756;stroke-opacity:1;stroke-dasharray:none"
       d="m 302.86161,9.880222 c -50.81938,2.575107 -102.54088,25.855588 -131.6812,68.735968 -18.86212,28.58764 -22.79458,65.43346 -14.00302,98.17411 -40.14567,11.52312 -78.16585,37.77016 -95.85373,76.54823 -14.05295,34.82343 -3.07975,75.96439 21.57972,103.21547 35.8125,41.82439 93.87945,60.37432 147.80331,54.74203 30.68633,-3.47966 60.51307,-15.35019 84.70517,-34.62792 36.31641,37.97862 98.87613,47.05382 144.34492,20.59564 1.09745,2.51416 0.76591,8.06453 1.74494,11.64948 5.53813,35.32044 26.7498,69.00717 59.33027,85.0873 32.27454,16.91668 75.30249,16.9968 104.15707,-6.9744 23.76748,-18.77797 36.94514,-48.93281 37.88839,-78.88967 26.6556,7.52604 56.04443,4.63637 80.79345,-7.74919 29.25022,16.20148 66.92467,15.16405 95.66837,-1.66776 36.7386,22.29817 86.5369,15.94885 119.139,-11.04545 26.36993,-19.50277 48.63863,-46.82199 56.24353,-79.22978 3.7692,-29.76962 -19.2552,-60.14018 -48.91963,-64.58997 3.3736,-25.45221 -9.4978,-52.16509 -31.9331,-64.85494 -10.2012,-6.78747 -22.9076,-8.5119 -32.5851,-16.07961 -30.627,-18.90511 -70.4156,-20.44074 -103.25107,-6.3783 11.96967,-29.34381 7.97847,-66.80615 -15.98568,-89.05197 C 763.09792,49.12594 732.95484,42.5177 708.56386,52.77015 684.70245,24.6763 641.41783,12.396765 607.64863,29.3402 573.08333,44.33069 550.38849,76.44404 531.72745,107.78896 519.90591,127.89768 510.15811,149.17989 501.8971,170.97851 472.69736,147.22707 431.13826,141.16023 395.80098,152.09407 413.65828,128.83059 423.69622,96.8087 412.89969,68.35268 402.47366,39.90411 375.76692,19.21227 346.24303,13.833627 332.05544,10.514539 317.39172,9.714591 302.86161,9.880222 Z"
       inkscape:export-filename="../eBrainVault/Attachments/np-launch-criccut-example-sofia.svg"
       inkscape:export-xdpi="96"
       inkscape:export-ydpi="96" />
    <path
       id="text2"
       style="font-size:60.4724px;font-family:Milkshake;-inkscape-font-specification:Milkshake;writing-mode:lr-tb;direction:ltr;white-space:pre;shape-inside:url(#rect2);display:inline;fill:none;fill-opacity:1;stroke:#ffffff;stroke-width:3.77952756;stroke-dasharray:none;stroke-opacity:1"
       d="m 386.25194,413.81491 c -12.35548,0 -24.98581,1.92376 -37.89042,5.76764 -12.63005,3.56943 -24.15855,8.92057 -34.59209,16.05934 -10.15894,6.86416 -18.53547,15.37614 -25.12506,25.53529 -6.5896,9.88429 -9.886,21.28175 -9.886,34.18643 0,13.17915 3.02096,26.08047 9.06142,38.71055 6.31501,12.35543 13.04336,24.43927 20.18207,36.24564 7.41328,11.53183 14.14161,22.78938 20.18207,33.77205 6.31503,10.98265 9.4715,21.54933 9.4715,31.70829 0,15.65026 -4.80469,28.00966 -14.41452,37.07031 -9.6098,9.06062 -22.24013,13.58987 -37.89039,13.58987 -7.41329,0 -14.14161,-1.51267 -20.18207,-4.53285 -6.04046,-3.02028 -11.25607,-6.86313 -15.64912,-11.53072 -4.1185,-4.66768 -7.41491,-9.7478 -9.886,-15.23917 -2.19654,-5.76583 -3.29385,-11.39237 -3.29385,-16.88374 0,-6.04044 0.82636,-11.25609 2.47371,-15.64913 1.64741,-4.66759 3.70655,-8.78583 6.17764,-12.35527 2.74567,-3.56934 5.76219,-6.73021 9.05697,-9.47593 3.29481,-3.02028 6.59122,-5.90126 9.886,-8.64689 3.02023,-2.19658 5.21488,-3.84476 6.5877,-4.94299 1.37285,-1.37287 2.05923,-3.02105 2.05923,-4.94308 0,-4.66759 -2.33015,-7.00214 -6.99777,-7.00214 -6.58959,0 -14.69067,1.78816 -24.3005,5.3575 -9.6098,3.29481 -18.9437,7.82397 -28.00439,13.58996 -8.78613,5.76582 -16.33632,12.62963 -22.65134,20.59211 -6.31501,7.68778 -9.47596,15.78895 -9.47596,24.30041 0,8.78621 2.47454,17.70908 7.41674,26.76982 4.94219,9.06071 12.07699,17.29721 21.41226,24.71054 9.33525,7.41331 20.86824,13.59074 34.59655,18.53296 13.72832,4.66765 29.37959,7.00223 46.95183,7.00223 12.35548,0 24.43492,-2.19916 36.24126,-6.59222 12.08094,-4.39303 22.79205,-10.43054 32.12725,-18.11841 9.60987,-7.68786 17.29557,-16.75075 23.06143,-27.18424 5.76593,-10.43349 8.65135,-21.82664 8.65135,-34.18207 0,-8.23703 -1.51269,-16.33804 -4.5329,-24.3005 -3.02025,-7.9624 -6.72757,-15.9235 -11.12062,-23.88599 -4.39308,-7.9624 -9.19778,-15.92349 -14.4145,-23.88598 -5.21679,-7.9624 -10.02144,-15.92797 -14.4145,-23.89037 -4.39306,-7.96249 -8.10044,-16.0591 -11.12065,-24.29603 -3.02025,-8.23702 -4.52849,-16.61359 -4.52849,-25.12506 0,-6.04055 1.23731,-11.80698 3.70836,-17.29835 2.47107,-5.76586 5.90304,-10.70609 10.29602,-14.82461 4.39308,-4.39303 9.60873,-7.8249 15.64919,-10.29609 6.04046,-2.74565 12.62885,-4.11843 19.76751,-4.11843 6.04046,0 10.84516,1.50829 14.41448,4.52847 3.84394,2.74572 5.76764,6.86406 5.76764,12.35534 0,6.58962 -1.9237,13.31799 -5.76764,20.18214 -3.84392,6.58953 -7.68677,12.21614 -11.53062,16.88372 -2.19654,2.74566 -3.70931,4.80481 -4.53297,6.17769 -0.54916,1.09824 -0.82016,2.33551 -0.82016,3.70838 0,1.37278 0.68638,2.74556 2.05916,4.11834 1.37287,1.37285 3.0166,2.05925 4.93859,2.05925 3.56934,0 8.64946,-1.78368 15.23905,-5.35303 6.5896,-3.56934 13.04252,-8.23857 19.35751,-14.00448 6.315,-5.76583 11.80605,-12.21873 16.47373,-19.35751 4.66759,-7.13857 7.00217,-14.41345 7.00217,-21.82678 0,-5.7659 -1.6482,-10.70604 -4.94301,-14.82465 -3.02016,-4.39304 -7.13848,-7.96498 -12.35523,-10.71063 -5.21672,-2.74572 -11.25426,-4.80481 -18.11839,-6.17766 -6.86413,-1.37278 -14.14337,-2.05927 -21.83123,-2.05927 z m 333.18728,11.5308 c -10.4336,0 -21.00484,4.66923 -31.71296,14.00448 -10.70814,9.33536 -21.00398,21.96576 -30.88841,37.89051 -9.8844,15.65026 -19.2183,34.04709 -28.00439,55.18873 -8.51156,20.867 -15.92626,42.9667 -22.24134,66.30489 -5.22969,19.32741 -9.51656,39.03477 -12.86338,59.11542 -3.13292,3.34353 -6.39633,6.42686 -9.78789,9.25316 -4.39306,3.56934 -9.47318,6.8657 -15.23911,9.88596 -5.76581,2.74565 -12.21873,4.11843 -19.35751,4.11843 h -3.70389 c -0.82371,-0.27428 -1.78549,-0.55028 -2.88374,-0.82456 7.9624,-10.43342 14.13981,-21.69104 18.53295,-33.77187 4.66759,-12.08099 7.00215,-23.61403 7.00215,-34.59661 0,-9.33525 -1.64818,-17.70735 -4.94299,-25.12066 -3.02025,-7.68786 -7.27841,-14.14067 -12.76979,-19.35751 -5.21674,-5.49121 -11.52966,-9.60955 -18.94299,-12.3552 -7.41331,-2.74572 -15.37441,-4.11841 -23.88599,-4.11841 -10.70802,0 -21.69017,2.33456 -32.94738,7.00215 -11.25721,4.66768 -21.55738,11.53149 -30.89265,20.59211 -9.33527,9.06073 -17.02094,20.31828 -23.06143,33.77205 -5.76585,13.17915 -8.6469,28.41503 -8.6469,45.7127 0,7.96249 1.64377,15.51259 4.93858,22.65138 3.56932,7.13869 8.23849,13.3161 14.00444,18.53293 6.04046,5.21677 12.90424,9.33502 20.59211,12.35528 7.9624,3.02018 16.19899,4.53294 24.71052,4.53294 8.78613,0 17.16266,-1.37278 25.12506,-4.1185 7.96237,-3.02018 15.23727,-7.13852 21.8268,-12.35527 5.7659,0.82372 11.12145,1.2346 16.06366,1.2346 12.0809,0 22.51215,-1.7836 31.29824,-5.35294 7.21806,-2.84353 13.47673,-6.03804 18.7781,-9.57849 C 587.17838,704.5521 586,722.5715 586,740 c 0,13.17905 2.05919,24.1612 6.17769,32.94738 4.1185,9.06065 9.19864,16.33546 15.23908,21.82674 6.04036,5.49128 12.62877,9.33862 19.76755,11.53518 7.13871,2.47103 13.72711,3.70389 19.76748,3.70389 6.58962,0 12.49612,-1.50826 17.71287,-4.52854 5.21684,-3.02018 9.60608,-7.00292 13.17552,-11.94514 3.56934,-4.66758 6.3194,-9.8833 8.24133,-15.64914 1.92194,-5.49137 2.87934,-10.84689 2.87934,-16.06364 0,-8.7862 -1.2328,-16.7473 -3.70389,-23.88598 -2.47112,-6.86415 -5.21668,-12.63067 -8.23687,-17.29826 -3.29481,-5.49137 -7.14222,-10.15611 -11.53528,-14.00001 10.43361,0 19.49656,-1.37278 27.18443,-4.11841 7.96246,-3.02018 14.69088,-6.59203 20.18216,-10.71063 2.89296,-2.06634 5.54251,-4.20029 7.95169,-6.40495 2.28525,7.03752 6.35977,13.15439 12.22606,18.35018 9.6099,8.23703 22.24032,12.35534 37.89065,12.35534 10.15896,0 19.49293,-2.61005 28.00458,-7.82679 8.78618,-5.21684 16.34086,-10.98327 22.65585,-17.29827 1.35329,-1.35329 2.68173,-2.74106 3.98922,-4.16749 0.39416,1.28264 0.84957,2.53501 1.36391,3.75736 2.19656,5.21677 5.0776,9.746 8.64697,13.5899 3.84397,3.84396 8.23771,6.72941 13.17999,8.65144 5.21677,2.1965 10.57229,3.29385 16.06366,3.29385 7.96249,0 15.37268,-1.78376 22.23688,-5.3531 6.8641,-3.56934 13.0415,-7.5521 18.5329,-11.94514 6.315,-4.94221 12.2215,-10.84424 17.7128,-17.70839 1.3729,11.53174 6.0376,20.31482 14,26.35519 7.9624,5.7659 17.7117,8.65144 29.2434,8.65144 10.159,0 19.4929,-2.61005 28.00453,-7.82679 8.7861,-5.21684 16.3363,-10.98327 22.6514,-17.29827 7.4132,-7.4134 14.1415,-15.92538 20.182,-25.53519 0.5494,-1.37287 1.0999,-2.60567 1.6491,-3.70389 0.5494,-1.09825 0.9601,-2.06012 1.2347,-2.88383 0.5494,-1.09823 0.8246,-2.19554 0.8246,-3.29376 0,-2.19659 -0.9619,-4.12024 -2.8839,-5.76764 -1.6474,-1.64734 -3.571,-2.46929 -5.7675,-2.46929 -1.3729,0 -2.6057,0.41054 -3.7039,1.23467 -1.0983,0.54943 -1.9246,1.09998 -2.4737,1.64914 -1.0984,1.09824 -1.7847,2.05564 -2.0593,2.87933 -4.1185,6.86415 -8.6477,12.77056 -13.5899,17.71278 -4.1185,4.66759 -8.9232,8.78593 -14.4145,12.35527 -5.2167,3.56943 -10.57223,5.35312 -16.06363,5.35312 -3.5694,0 -6.4504,-1.09738 -8.6469,-3.29385 -1.922,-2.19658 -2.8838,-4.94214 -2.8838,-8.23686 0,-6.86415 1.2372,-14.68983 3.7084,-23.47594 2.4711,-9.06063 5.2166,-17.7126 8.2368,-25.94962 3.0203,-8.51156 5.7657,-16.19728 8.23683,-23.06143 2.4711,-6.86415 3.704,-11.80428 3.704,-14.82456 0,-3.56934 -0.9619,-6.59039 -2.8839,-9.0614 -1.92183,-2.47112 -4.39203,-4.39479 -7.41223,-5.76757 -2.7456,-1.6474 -5.9022,-2.74469 -9.4715,-3.29385 -3.2948,-0.82369 -6.4512,-1.23469 -9.4715,-1.23469 -2.4711,-3.29472 -5.7675,-6.45566 -9.8859,-9.47594 -3.5695,-2.47109 -8.2386,-4.66569 -14.0045,-6.58763 -5.7659,-2.19656 -12.7652,-3.29385 -21.0022,-3.29385 -11.2573,0 -22.5148,3.56736 -33.772,10.70604 -11.25723,7.1388 -21.41747,16.61266 -30.47821,28.41893 -9.06071,11.53183 -16.47101,24.57307 -22.23694,39.12507 -3.78358,10.02632 -6.26686,20.11652 -7.44359,30.27316 -2.96083,4.21202 -6.10849,7.98939 -9.44469,11.3256 -4.11853,4.66759 -8.92324,8.78593 -14.41462,12.35527 -5.21677,3.56943 -10.57238,5.35312 -16.06375,5.35312 -4.1185,0 -7.41048,-1.37278 -9.88157,-4.11843 -2.19656,-3.02025 -3.29388,-6.8631 -3.29388,-11.53069 0,-9.88443 1.09732,-19.35831 3.29388,-28.41893 2.47109,-9.33527 5.07676,-18.12275 7.82241,-26.35968 3.02017,-8.23703 5.76573,-15.92272 8.23684,-23.06141 2.4711,-7.41333 3.70839,-14.27714 3.70839,-20.5922 0,-1.64731 -1.09729,-3.70649 -3.29387,-6.17759 -2.19647,-2.74565 -4.94203,-5.3557 -8.23684,-7.82682 -3.2949,-2.4711 -6.86675,-4.66576 -10.71072,-6.58772 -3.84397,-1.92194 -7.27584,-2.88372 -10.29602,-2.88372 -2.47119,0 -4.66586,0.82198 -6.58789,2.4692 -1.92184,1.37287 -3.4346,3.15654 -4.53285,5.35312 -2.47112,5.76591 -5.62766,13.45601 -9.47162,23.06581 -3.56935,9.60987 -7.00122,19.77004 -10.29612,30.47818 -3.29481,10.70803 -6.17576,21.2792 -8.64697,31.71279 -1.29257,5.45748 -2.24953,10.50086 -2.86587,15.13205 -1.69147,2.02794 -3.48034,4.11936 -5.37097,6.28014 -3.56934,4.1185 -7.68768,7.96585 -12.35536,11.53519 -4.66759,3.29472 -9.88331,6.04028 -15.64922,8.23686 -5.7659,2.19647 -12.21882,3.29385 -19.3576,3.29385 -4.39305,0 -8.24038,-0.55114 -11.53518,-1.64921 -3.29481,-1.37278 -6.04037,-2.74556 -8.23694,-4.11843 -2.74556,-1.6474 -5.07573,-3.70649 -6.99767,-6.17759 0.54941,-7.1387 1.50646,-14.27798 2.87933,-21.41678 1.37287,-7.13859 3.16095,-13.86251 5.35742,-20.17751 7.41333,-6.04052 15.2346,-13.73072 23.47163,-23.06589 8.51164,-9.33525 16.75273,-19.35553 24.71513,-30.06365 8.237,-10.98258 15.92278,-22.37564 23.06158,-34.182 7.41322,-11.80637 13.86621,-23.06392 19.35758,-33.77204 5.76593,-10.98267 10.29516,-21.00733 13.58997,-30.06804 3.2948,-9.06065 4.94298,-16.47095 4.94298,-22.23683 0,-3.56934 -1.09728,-7.41666 -3.29385,-11.53518 -2.19647,-4.39306 -5.08203,-8.37149 -8.65137,-11.94083 -3.56944,-3.84396 -7.68769,-6.86492 -12.35537,-9.06151 -4.39303,-2.4711 -8.92237,-3.70837 -13.58994,-3.70837 z m 90.19579,26.76989 c -4.66768,0 -9.06142,1.23727 -13.17992,3.70845 -4.11852,2.19659 -7.82586,5.35304 -11.12067,9.47151 -3.02034,3.84388 -5.49034,8.23762 -7.41237,13.17983 -1.92194,4.94222 -2.88381,10.02234 -2.88381,15.2391 0,7.41322 2.19914,13.17974 6.5922,17.29824 4.39312,4.11843 9.60868,6.17762 15.64921,6.17762 4.39315,0 8.5114,-1.09732 12.35536,-3.29388 4.1185,-2.471 7.68595,-5.63197 10.70623,-9.47593 3.29481,-4.1185 5.76937,-8.64766 7.41677,-13.58988 1.92194,-5.21683 2.87934,-10.56788 2.87934,-16.05916 0,-6.86424 -2.05918,-12.35963 -6.17768,-16.47815 -3.84397,-4.11859 -8.7842,-6.17775 -14.82466,-6.17775 z m -81.95895,0.82455 c 5.76591,0 8.65145,2.74556 8.65145,8.23694 0,4.11838 -1.37725,10.02488 -4.1229,17.71275 -2.4711,7.68784 -5.90306,16.19545 -10.29609,25.5306 -4.11862,9.06074 -8.92325,18.67458 -14.41462,28.83347 -5.21684,9.88441 -10.70786,19.3538 -16.47379,28.41444 -5.76591,8.78618 -11.53252,16.75177 -17.29833,23.89046 -5.49146,7.13877 -10.43162,12.35431 -14.82475,15.64912 5.21684,-18.12136 10.98343,-35.96729 17.29842,-53.53949 6.31509,-17.84683 12.628,-33.77361 18.94309,-47.77645 6.58962,-14.00285 12.63161,-25.2604 18.123,-33.77205 5.76591,-8.78595 10.57062,-13.17979 14.41452,-13.17979 z M 508.15999,571.96453 c 4.66768,0 8.51053,2.05909 11.53071,6.17768 3.02028,3.84388 4.53295,10.43669 4.53295,19.77196 0,9.06062 -1.09729,19.49188 -3.29385,31.29827 -2.1965,11.53174 -5.35744,22.51389 -9.47594,32.94738 -1.6474,-0.54943 -3.15569,-0.82456 -4.52847,-0.82456 -1.64741,0 -3.70657,0.68656 -6.17759,2.05907 -2.19657,1.09834 -4.39573,2.6111 -6.5922,4.53304 -2.19656,1.92187 -4.11567,4.1166 -5.76307,6.58763 -1.3729,2.47119 -2.05925,4.80577 -2.05925,7.00224 0,3.56934 2.33455,6.86579 7.00214,9.88598 -4.11841,3.29481 -8.37666,4.94308 -12.76971,4.94308 -6.31507,0 -11.25523,-2.61014 -14.82457,-7.82682 -3.29479,-5.21675 -4.94301,-11.94505 -4.94301,-20.18207 0,-14.00286 1.50827,-26.76867 4.52845,-38.30051 3.29481,-11.80627 7.27762,-21.96653 11.94527,-30.47809 4.9422,-8.78611 10.15778,-15.51441 15.64915,-20.18209 5.49128,-4.94221 10.5714,-7.41228 15.23899,-7.41228 z m 418.85048,2.88383 c 4.1185,0 7.5504,1.50827 10.2961,4.52845 3.0202,2.74566 4.5329,7.1394 4.5329,13.17983 0,7.9624 -2.0591,17.30087 -6.1776,28.00889 -3.8439,10.43352 -8.6486,20.45377 -14.4145,30.06358 -5.766,9.6098 -11.9434,17.71097 -18.533,24.30059 -6.315,6.58953 -11.946,9.88148 -16.8882,9.88148 -7.9624,0 -11.94076,-6.1775 -11.94076,-18.53293 0,-8.51158 1.64378,-18.12085 4.93858,-28.82897 3.29478,-10.70812 7.41308,-20.59289 12.35528,-29.65353 5.2167,-9.33527 10.9833,-17.16095 17.2983,-23.47595 6.315,-6.31499 12.4924,-9.47144 18.5329,-9.47144 z M 635.42118,698.40555 c 4.94212,5.7659 9.47137,12.07884 13.58987,18.943 3.29481,5.76581 6.31577,12.62971 9.06149,20.59211 3.02019,7.96239 4.53295,16.33897 4.53295,25.12508 0,3.29478 -0.27513,6.58676 -0.82456,9.88157 -0.54941,3.56925 -1.37545,6.72579 -2.47376,9.47144 -1.09825,2.74565 -2.60654,4.94479 -4.52848,6.5922 -1.6474,1.92196 -3.70656,2.88374 -6.17768,2.88374 -3.56925,0 -7.27661,-3.16085 -11.12058,-9.47594 -3.56934,-6.31499 -5.35303,-17.56814 -5.35303,-33.76756 0,-5.49128 0.13533,-11.2578 0.4097,-17.29826 0.27428,-5.76581 0.69001,-11.12142 1.2391,-16.06363 0.5494,-5.76584 1.09546,-11.39238 1.64464,-16.88375 z" />
  </g>
</svg>
