<?xml version="1.0" encoding="UTF-8" standalone="no"?>
<!-- Created with Inkscape (http://www.inkscape.org/) -->

<svg
   width="11in"
   height="8.5in"
   viewBox="0 0 1056 816"
   version="1.1"
   id="svg1"
   inkscape:version="1.4.4 (dcaf3e7d9e, 2026-05-05)"
   sodipodi:docname="np-launch-criccut-example-kenzie-d-cut.svg"
   xmlns:inkscape="http://www.inkscape.org/namespaces/inkscape"
   xmlns:sodipodi="http://sodipodi.sourceforge.net/DTD/sodipodi-0.dtd"
   xmlns="http://www.w3.org/2000/svg"
   xmlns:svg="http://www.w3.org/2000/svg">
  <sodipodi:namedview
     id="namedview1"
     pagecolor="#ffffff"
     bordercolor="#000000"
     borderopacity="0.25"
     inkscape:showpageshadow="2"
     inkscape:pageopacity="0.0"
     inkscape:pagecheckerboard="0"
     inkscape:deskcolor="#d1d1d1"
     inkscape:document-units="in"
     inkscape:zoom="0.5179123"
     inkscape:cx="499.11925"
     inkscape:cy="471.12223"
     inkscape:window-width="1536"
     inkscape:window-height="795"
     inkscape:window-x="0"
     inkscape:window-y="0"
     inkscape:window-maximized="1"
     inkscape:current-layer="layer1" />
  <defs
     id="defs1" />
  <g
     inkscape:label="Layer 1"
     inkscape:groupmode="layer"
     id="layer1">
    <path
       id="text3-6"
       style="font-size:60.4724px;font-family:Milkshake;-inkscape-font-specification:Milkshake;writing-mode:lr-tb;direction:ltr;white-space:pre;shape-inside:url(#rect3);display:inline;fill:none;fill-opacity:1;stroke:#ffffff;stroke-width:3.77952756;stroke-opacity:1;stroke-dasharray:none"
       d="m 259.24564,38.160716 c -14.98318,0.817033 -29.69025,7.107735 -40.30948,17.7602 -39.9883,3.121012 -82.08644,11.20801 -113.90804,37.286204 -21.512174,18.68716 -30.702954,52.04175 -17.038651,77.9416 2.000337,4.16063 4.438824,8.11297 7.243771,11.77976 -24.997094,10.54488 -48.078459,32.72556 -50.020817,61.07887 -1.299498,27.97076 17.967018,52.23185 39.955757,67.33746 33.16558,23.51209 80.98514,28.85601 115.93709,6.10178 12.15805,-7.99616 22.4138,-18.73168 30.36023,-30.89046 7.72299,22.52903 27.7767,40.34569 51.43641,44.19543 21.08963,4.19917 43.90477,-1.30481 60.79748,-14.59503 29.23058,20.0003 69.09131,20.46102 100.4291,5.10713 17.48618,11.70728 42.17747,15.07983 60.71327,4.01975 5.29424,-3.80694 9.07621,-9.47297 11.28184,-15.55946 23.51897,25.95876 66.1119,29.35538 94.71268,9.91813 3.29446,-0.94732 6.17633,4.70143 9.83398,5.82745 13.48729,8.06673 30.67213,8.29157 44.8125,1.8228 19.19846,-4.58551 36.90818,5.57456 56.25612,4.62778 14.03094,0.38273 27.84197,-4.35815 39.59919,-11.82282 26.12578,17.38769 62.97008,15.04263 87.56405,-3.97614 34.73874,24.04547 83.71078,19.42657 117.26677,-4.53304 18.26489,-12.65469 35.06821,-30.77564 38.91701,-53.34222 1.0725,-16.71126 -11.38617,-33.00813 -27.65643,-36.68677 5.34075,-25.65348 -6.86453,-53.905 -29.8703,-66.79512 -21.36347,-12.9303 -49.15598,-11.58206 -70.50172,0.68222 -11.36146,5.83504 -21.51909,13.93199 -30.06392,23.40053 -1.51391,-3.65575 -5.69941,-7.13008 0.004,-8.39011 27.51266,-15.08896 41.11703,-54.45122 23.75946,-81.81912 C 860.2282,70.708671 836.38323,63.71295 817.3574,71.271184 c -30.15738,10.416583 -47.7435,47.699796 -35.74967,77.427406 -4.46346,1.9369 -8.56211,4.72567 -12.03455,8.12898 -11.78183,-11.44823 -31.11801,-14.98871 -45.48735,-6.32653 -9.96273,2.40776 -19.73582,-2.95299 -29.72154,-3.32151 -22.12631,-3.79174 -48.35832,-2.37049 -64.43405,15.3737 -7.3694,8.00611 -11.41367,18.31321 -14.89733,28.45175 -6.06332,-31.55105 -41.6514,-52.34857 -72.28435,-43.88246 -9.73726,2.38333 -19.13966,5.94308 -28.10938,10.41197 -17.02296,-12.4027 -44.62618,-11.91086 -57.38695,6.40109 -2.15179,3.71148 -5.32554,-4.00527 -8.24631,-4.6693 -20.06321,-15.5325 -48.83831,-18.03979 -71.3896,-6.48714 -28.8698,12.54503 -50.61372,38.7765 -60.30099,68.44466 -1.32989,-7.59985 -2.96732,-15.2454 -6.18515,-22.30183 22.9279,-23.40624 31.44973,-57.34034 55.80769,-79.55866 10.98288,-3.41535 24.99081,-4.21582 31.04117,-15.68405 11.72256,-16.468603 4.3308,-40.692321 -11.91471,-51.279368 -19.15164,-15.181433 -47.69344,-14.073145 -67.34132,-0.375491 -6.00467,3.128703 -11.55713,8.698642 -16.60548,11.990932 C 294.83747,47.773024 277.11907,36.69639 259.24564,38.16144 Z" />
    <path
       id="text3"
       style="font-size:60.4724px;font-family:Milkshake;-inkscape-font-specification:Milkshake;writing-mode:lr-tb;direction:ltr;white-space:pre;shape-inside:url(#rect3);display:inline;fill:none;fill-opacity:1;stroke:#ffffff;stroke-width:3.77952756;stroke-dasharray:none;stroke-opacity:1"
       d="m 261.14018,418.92227 c -4.93681,0 -9.6598,1.18321 -14.16733,3.54419 -4.50747,2.14645 -9.23051,6.54558 -14.16727,13.19947 -7.94175,0.21443 -16.524,0.85775 -25.75361,1.93111 -9.22967,1.07318 -18.35179,2.68345 -27.36673,4.8299 -9.01499,1.93175 -17.70991,4.40131 -26.08094,7.40623 -8.37104,3.00502 -15.77485,6.76093 -22.21414,11.26845 -6.22461,4.29282 -11.27158,9.23184 -15.13515,14.81255 -3.86356,5.58071 -5.7932,11.90932 -5.7932,18.99254 0,7.51254 1.82166,14.06183 5.47056,19.64254 3.86357,5.5807 8.47864,10.29905 13.84468,14.16263 5.36605,3.64896 10.84028,6.44234 16.42099,8.37409 5.58071,1.93183 10.3037,2.89897 14.16727,2.89897 4.29286,0 6.43843,-1.39909 6.43843,-4.1894 0,-1.28789 -0.64322,-2.35826 -1.93106,-3.21692 l -3.22153,-2.57623 c -2.3611,-2.14645 -4.82591,-4.93522 -7.40162,-8.36948 -2.57572,-3.43425 -3.86677,-8.58925 -3.86677,-15.45775 0,-6.01004 1.0751,-11.37631 3.22154,-16.09845 2.14642,-4.72205 4.93515,-8.68923 8.36944,-11.90887 3.64895,-3.43434 7.72879,-6.33567 12.23626,-8.69683 4.50747,-2.36098 9.12254,-4.29055 13.84468,-5.79315 10.94676,-3.64887 23.50081,-5.68648 37.66723,-6.11572 -2.14642,3.21964 -4.50326,8.15396 -7.07897,14.80784 -2.36104,5.58071 -5.15452,13.30841 -8.37413,23.18203 -3.00499,9.6589 -6.65289,22.00162 -10.94574,37.02661 -3.005,11.16142 -6.33365,22.64503 -9.98261,34.45048 -3.64889,11.59065 -7.93999,22.21506 -12.87681,31.87397 -4.93675,9.65899 -10.73022,17.59797 -17.38412,23.82262 -6.65395,6.22465 -14.59762,9.33734 -23.82729,9.33734 -6.22461,0 -11.80681,-2.25358 -16.74357,-6.76102 -4.72214,-4.72214 -7.08366,-11.15879 -7.08366,-19.31527 0,-3.86358 0.75116,-7.6194 2.25371,-11.26836 1.50247,-3.64888 3.22078,-7.08557 5.1526,-10.30521 2.14642,-3.43425 4.39991,-6.439 6.76101,-9.01469 2.36105,-2.57569 4.40333,-4.61329 6.12042,-6.1158 l 4.82533,-4.8299 c 1.07319,-1.28789 1.61311,-2.79022 1.61311,-4.50735 0,-1.28789 -0.75116,-2.36297 -2.25366,-3.22153 -1.50253,-1.07328 -3.43679,-1.60855 -5.79788,-1.60855 -4.72209,0 -10.29961,1.1785 -16.73889,3.53957 -6.43929,2.14636 -12.66464,5.15111 -18.674642,9.01469 -5.79538,3.86358 -10.734376,8.58662 -14.812556,14.16724 -4.078189,5.36609 -6.115787,11.27225 -6.115787,17.71152 0,5.58071 2.037598,11.59011 6.115787,18.02938 4.07818,6.43927 9.55241,12.44876 16.42098,18.02946 6.868568,5.58062 14.812238,10.30367 23.827238,14.16725 9.01499,3.64887 18.45635,5.47059 28.32992,5.47059 14.38104,0 26.39991,-3.00474 36.0588,-9.01478 9.65891,-6.22456 17.49465,-14.27156 23.50465,-24.14518 6.22462,-9.87352 11.16361,-21.03792 14.81251,-33.48713 3.64896,-12.44931 6.76161,-25.00339 9.33732,-37.66731 h 11.59103 0.31795 c 0.85856,1.07327 1.8257,2.46766 2.89888,4.1847 1.28787,1.71721 2.36297,4.07874 3.22154,7.08366 1.07323,2.7904 1.93239,6.33033 2.57629,10.62315 0.85857,4.29291 1.28584,9.44311 1.28584,15.45315 0,9.22957 0.43186,17.92451 1.29047,26.0809 1.07324,8.1564 3.21876,15.24097 6.43843,21.251 3.21962,6.00995 7.83468,10.83623 13.84468,14.4852 6.01,3.43434 13.94898,5.15264 23.82255,5.15264 7.51247,0 14.48906,-2.0376 20.92835,-6.1158 6.6539,-4.07829 12.44736,-8.58527 17.38412,-13.52204 2.49255,-2.58844 4.92536,-5.3498 7.28938,-8.28062 2.77378,5.62178 6.56649,10.52869 11.38531,14.71899 4.93676,4.0782 10.84288,7.29883 17.71145,9.65999 6.86857,2.36098 14.38035,3.53948 22.53677,3.53948 12.23462,0 22.75113,-2.0376 31.55145,-6.1158 9.015,-4.07829 16.52677,-8.58527 22.53677,-13.52204 0.67344,-0.55102 1.33497,-1.11199 1.98713,-1.67858 -0.038,1.21026 -0.0561,2.41437 -0.0561,3.60961 0,5.15138 2.89676,9.44256 8.69209,12.87682 5.79538,3.21963 12.98786,4.82999 21.57358,4.82999 2.36104,0 4.07939,-0.42706 5.15257,-1.2859 1.28789,-0.64421 1.93111,-2.36215 1.93111,-5.15255 0,-15.45423 1.61036,-29.29937 4.82991,-41.53396 3.43434,-12.44931 7.61741,-22.96587 12.55426,-31.5515 5.15138,-8.80035 10.51765,-15.45297 16.09835,-19.96049 5.79533,-4.72215 11.16151,-7.08367 16.09827,-7.08367 1.71722,0 3.21954,0.53564 4.50743,1.60846 1.2879,0.85865 1.93103,2.04168 1.93103,3.54419 0,4.93676 -0.85413,10.08705 -2.57162,15.45305 -1.71722,5.15147 -3.65141,10.62559 -5.79786,16.42101 -1.93175,5.79532 -3.75808,11.80472 -5.47512,18.02937 -1.71721,6.01004 -2.57171,12.33865 -2.57171,18.99263 0,9.01496 3.75582,16.74275 11.26836,23.18202 7.51255,6.22456 17.38589,9.33734 29.62057,9.33734 7.94187,0 15.23772,-2.0376 21.8916,-6.1158 6.8686,-4.07829 12.77015,-8.58527 17.707,-13.52204 5.79442,-5.79451 11.0542,-12.44948 15.77571,-19.96048 l 0.005,-0.005 c 5.15147,-7.29783 11.91212,-19.31672 20.28323,-36.05875 3.86358,-7.51254 7.40351,-12.87881 10.62315,-16.09836 3.43434,-3.43434 7.51417,-5.14794 12.2364,-5.14794 6.22456,0 12.23415,1.07038 18.02947,3.21683 5.79533,2.14645 11.80482,3.22154 18.02956,3.22154 -3.21964,3.86358 -7.4075,8.15467 -12.55897,12.87682 -5.15147,4.50752 -10.62106,9.23048 -16.41639,14.16733 l -17.38896,14.16725 c -5.79532,4.72214 -11.05365,9.22921 -15.77579,13.52203 -4.72215,4.29291 -8.58609,8.15676 -11.59111,11.5911 -2.79031,3.43425 -4.18469,6.22293 -4.18469,8.36939 0,1.50251 0.42706,3.22081 1.28572,5.15264 0.85865,1.71713 2.04177,3.43543 3.54418,5.15256 1.5026,1.50251 3.11296,2.78886 4.83009,3.86213 1.93175,1.07318 3.86132,1.60846 5.79315,1.60846 3.86358,0 8.37066,-1.07046 13.52213,-3.21692 5.15147,-1.93174 11.48488,-2.89888 18.99742,-2.89888 5.15138,0 9.65845,0.31939 13.52212,0.96316 3.86358,0.64421 7.51155,1.29178 10.9458,1.93572 3.43425,0.85866 6.87095,1.60973 10.3052,2.25367 3.43435,0.64422 7.40623,0.96325 11.91376,0.96325 7.94174,0 15.23767,-2.0376 21.89156,-6.1158 6.8686,-4.07829 12.76996,-8.58527 17.70673,-13.52204 1.04232,-1.04232 2.06909,-2.11442 3.07667,-3.21221 1.84398,5.01892 4.89731,9.41488 9.15964,13.19006 7.51245,6.43927 17.38579,9.65999 29.62039,9.65999 7.94178,0 15.23762,-2.0376 21.89151,-6.1158 6.86859,-4.07829 12.77467,-8.58527 17.71143,-13.52204 2.55262,-2.55261 5.00118,-5.27343 7.34551,-8.15911 2.76842,5.57103 6.54043,10.43749 11.32455,14.59748 4.93676,4.0782 10.84284,7.29883 17.71143,9.65999 6.8686,2.36098 14.38033,3.53948 22.53672,3.53948 12.23469,0 22.75116,-2.0376 31.5515,-6.1158 9.01496,-4.07829 16.52678,-8.58527 22.53673,-13.52204 7.08321,-5.79541 12.98937,-12.45274 17.71152,-19.96519 0.42887,-1.07318 0.85684,-2.0357 1.28572,-2.89427 0.42887,-0.85865 0.75369,-1.60972 0.96786,-2.25367 0.42887,-0.85865 0.6406,-1.71767 0.6406,-2.57623 0,-1.71713 -0.75099,-3.21955 -2.25368,-4.50735 -1.28789,-1.28789 -2.79021,-1.93111 -4.50734,-1.93111 -1.07318,0 -2.04032,0.3194 -2.89888,0.96316 -0.85866,0.42887 -1.50179,0.86137 -1.93112,1.29051 -0.85865,0.85866 -1.39375,1.60982 -1.60837,2.25368 -3.64896,5.5807 -8.04809,10.51502 -13.19947,14.80793 -4.2929,3.64887 -9.55105,7.08548 -15.7757,10.3052 -6.22465,3.00493 -13.09325,4.50734 -20.6057,4.50734 -7.72716,0 -14.38449,-2.57749 -19.9652,-7.72887 -5.5807,-5.15147 -8.36938,-12.55526 -8.36938,-22.21416 1.71712,0.42887 3.32748,0.74826 4.8299,0.96315 2.57569,0.64422 5.04525,0.96787 7.40632,0.96787 10.08823,0 18.45916,-1.71831 25.11305,-5.15265 6.8685,-3.64887 12.23477,-7.93997 16.09835,-12.87673 4.0782,-4.93676 6.97491,-10.08706 8.69204,-15.45314 1.71713,-5.58071 2.57632,-10.30376 2.57632,-14.16725 0,-4.29291 -0.96714,-8.48068 -2.89888,-12.55887 -1.71713,-4.07829 -4.18669,-7.61814 -7.40632,-10.62315 -3.21964,-3.21973 -6.97554,-5.79714 -11.26836,-7.72888 -4.29282,-1.93184 -8.90792,-2.89427 -13.84468,-2.89427 -7.08322,0 -14.70298,1.92957 -22.85938,5.79315 -7.94178,3.86358 -15.34556,9.44574 -22.21416,16.74357 -6.86859,7.08322 -12.55869,15.67011 -17.06622,25.75835 -4.50743,10.08814 -6.76101,21.24792 -6.76101,33.48252 0,0.68493 0.0181,1.36425 0.0452,2.0386 -2.5186,3.70732 -5.21363,6.9997 -8.0889,9.87497 -3.21964,3.64896 -6.97555,6.86489 -11.26836,9.65529 -4.0782,2.7903 -8.26606,4.18939 -12.55888,4.18939 -3.21963,0 -5.79243,-1.07508 -7.72426,-3.22153 -1.71713,-2.36107 -2.57623,-5.36573 -2.57623,-9.01469 0,-7.72716 0.85955,-15.13095 2.57623,-22.21416 1.93183,-7.29783 3.96944,-14.16643 6.1158,-20.6057 2.36108,-6.43927 4.50662,-12.44867 6.43837,-18.02938 1.93183,-5.79532 2.89897,-11.16159 2.89897,-16.09835 0,-1.28789 -0.85956,-2.89816 -2.57632,-4.83 -1.71713,-2.14636 -3.86268,-4.18867 -6.43837,-6.12042 -2.57569,-1.93183 -5.36446,-3.64543 -8.36947,-5.14794 -3.00502,-1.50251 -5.69046,-2.25367 -8.05153,-2.25367 -1.93175,0 -3.65005,0.64331 -5.15256,1.93102 -1.50251,1.07318 -2.68092,2.46757 -3.53948,4.18478 -1.93183,4.50753 -4.4013,10.51693 -7.40623,18.02938 -2.7904,7.51245 -5.47113,15.45622 -8.04691,23.82724 -2.57569,8.3711 -4.82928,16.63408 -6.76102,24.79039 -1.13534,4.7938 -1.93989,9.17918 -2.40794,13.1574 -2.08719,2.86061 -4.28757,5.45177 -6.60675,7.77095 -3.21963,3.64896 -6.98025,6.86489 -11.27306,9.65529 -4.0782,2.7903 -8.26136,4.18939 -12.55426,4.18939 -5.15147,0 -9.76645,-0.85956 -13.84474,-2.57623 -4.0782,-1.71722 -8.3693,-3.54346 -12.87682,-5.4753 -4.29291,-1.93174 -9.12399,-3.75337 -14.48999,-5.4705 -5.15147,-1.71713 -11.37694,-2.57632 -18.67477,-2.57632 6.8686,-6.86851 15.02364,-14.06111 24.46792,-21.57357 9.659,-7.72716 18.88912,-15.02291 27.68952,-21.8915 8.80034,-6.8686 16.31225,-12.98594 22.53681,-18.35203 6.22465,-5.36609 9.33734,-9.22994 9.33734,-11.59101 0,-1.71713 -0.42707,-3.54347 -1.28581,-5.47521 -0.64422,-2.14636 -1.61109,-4.07603 -2.89889,-5.79315 -1.28789,-1.93175 -2.79021,-3.54211 -4.50743,-4.83 -1.50242,-1.2878 -3.00484,-1.93102 -4.50734,-1.93102 -2.36108,0 -5.25779,1.07047 -8.69213,3.21692 -3.43426,1.93174 -7.62212,2.89888 -12.55884,2.89888 -3.64896,0 -7.29693,-0.32391 -10.9458,-0.96795 -3.43434,-0.64422 -7.08231,-1.28708 -10.9458,-1.93093 -3.86358,-0.85865 -8.04674,-1.60982 -12.55435,-2.25376 -4.29282,-0.64422 -9.01587,-0.96316 -14.16734,-0.96316 -7.29792,0 -13.41535,1.39438 -18.35211,4.18469 -4.72224,2.57569 -8.58609,8.69313 -11.59111,18.35203 -4.72214,15.23961 -9.87243,27.58242 -15.45314,37.02671 -4.5914,7.89708 -8.32152,13.98492 -11.18431,18.26788 -0.72293,0.75912 -1.18021,1.43202 -1.37466,2.01517 -3.21963,5.36608 -6.75956,9.9811 -10.62314,13.84468 -3.21973,3.64896 -6.97564,6.86489 -11.26846,9.65529 -4.07828,2.7903 -8.26614,4.18939 -12.55896,4.18939 -3.21973,0 -5.79713,-1.07508 -7.72897,-3.22153 -1.71713,-2.36107 -2.57162,-5.36573 -2.57162,-9.01469 0,-5.79532 0.85413,-11.58884 2.57162,-17.38416 1.93184,-6.00995 3.86611,-11.91611 5.79786,-17.71144 2.14645,-5.79532 4.07603,-11.37286 5.79324,-16.73895 1.93184,-5.58071 2.89898,-10.83894 2.89898,-15.7757 0,-3.21964 -0.75099,-6.44036 -2.25377,-9.65999 -1.5025,-3.21964 -3.54011,-6.11635 -6.1158,-8.69204 -2.57578,-2.7904 -5.58044,-5.0486 -9.01478,-6.76572 -3.21963,-1.71713 -6.5483,-2.57162 -9.98255,-2.57162 -6.8686,0 -13.30533,1.07047 -19.31537,3.21692 -6.01003,2.14636 -11.37621,4.50789 -16.09835,7.08358 -5.58071,3.00501 -10.62768,6.44162 -15.1352,10.3052 -4.93676,-7.72716 -9.3358,-12.55815 -13.19938,-14.4899 -3.86358,-1.93183 -6.97627,-2.89888 -9.33734,-2.89888 -4.07824,0 -6.97495,2.04222 -8.69209,6.12042 -1.93181,4.50752 -4.40131,10.72819 -7.40625,18.66997 -2.79038,7.94178 -5.57911,16.63662 -8.36949,26.08091 -2.79034,9.22958 -5.15186,18.88694 -7.08362,28.97509 -0.002,0.008 -0.003,0.0181 -0.005,0.0271 -3.16435,4.26965 -6.81096,8.12581 -10.9411,11.56767 -4.29286,3.64887 -9.55577,7.08547 -15.78038,10.3052 -6.22467,3.00493 -13.09324,4.50734 -20.60571,4.50734 -7.72714,0 -14.37976,-2.57749 -19.96047,-7.72887 -5.58072,-5.15147 -8.36945,-12.55526 -8.36945,-22.21416 1.71714,0.42887 3.32749,0.74826 4.82996,0.96315 2.57571,0.64422 5.04521,0.96787 7.40625,0.96787 10.08824,0 18.45917,-1.71831 25.11307,-5.15265 6.86857,-3.64887 12.23477,-7.93997 16.09834,-12.87673 4.07824,-4.93676 6.97495,-10.08706 8.69209,-15.45314 1.71714,-5.58071 2.5763,-10.30376 2.5763,-14.16725 0,-4.29291 -0.96714,-8.48068 -2.89889,-12.55887 -1.71715,-4.07829 -4.18664,-7.61814 -7.40631,-10.62315 -3.21961,-3.21973 -6.97553,-5.79714 -11.26838,-7.72888 -4.29281,-1.93184 -8.90788,-2.89427 -13.84464,-2.89427 -7.08323,0 -14.70298,1.92957 -22.85941,5.79315 -7.94176,3.86358 -15.34556,9.44574 -22.21413,16.74357 -6.86856,7.08321 -12.55874,15.67011 -17.06621,25.75835 -4.50747,10.08814 -6.76103,21.24792 -6.76103,33.48252 0,0.41439 0.004,0.82879 0.0136,1.23903 -3.55307,4.18279 -7.31298,7.74064 -11.2824,10.67454 -4.93675,3.64896 -9.76777,5.47059 -14.48991,5.47059 -5.58071,0 -10.623,-3.00474 -15.13047,-9.01478 -4.29285,-6.00994 -7.40556,-16.41847 -9.33732,-31.22876 -1.07323,-6.86859 -2.35965,-12.66672 -3.86212,-17.38887 -1.28786,-4.93676 -2.79023,-8.90394 -4.50737,-11.90895 -1.71714,-3.00502 -3.43546,-5.36654 -5.1526,-7.08367 -1.50247,-1.71713 -2.89686,-3.00818 -4.18472,-3.86675 5.15143,-2.57569 9.7665,-5.7917 13.84469,-9.65528 4.07818,-4.0782 8.05004,-8.69322 11.91362,-13.84469 3.86356,-5.36599 7.61948,-11.27216 11.26837,-17.71143 3.64891,-6.43927 7.62077,-13.30786 11.91362,-20.6057 5.15144,-9.22967 10.08574,-16.52551 14.80788,-21.89151 4.72214,-5.5807 9.12121,-9.8718 13.1994,-12.87682 4.29285,-3.00501 8.15674,-4.93929 11.59103,-5.79786 3.43428,-1.07327 6.54699,-1.60846 9.33732,-1.60846 3.21961,0 4.82995,-1.39438 4.82995,-4.18469 0,-0.85865 -0.53519,-2.14962 -1.60842,-3.86684 -1.07318,-1.71712 -2.57556,-3.32278 -4.50737,-4.8252 -1.71709,-1.71721 -3.75937,-3.11621 -6.12041,-4.18939 -2.3611,-1.28789 -4.72263,-1.93112 -7.08367,-1.93112 -4.93675,0 -9.76309,0.85956 -14.48523,2.57633 -4.72214,1.71712 -9.55316,4.50589 -14.48992,8.36938 -4.93681,3.86358 -10.19504,9.01858 -15.77575,15.45785 -5.58071,6.43927 -11.59013,14.37834 -18.02941,23.82253 -3.86357,5.58071 -7.9434,11.37884 -12.23625,17.38887 -4.29281,6.00995 -8.7999,11.69552 -13.52205,17.06152 -4.72214,5.36609 -9.76442,10.19708 -15.13046,14.48989 -5.15143,4.29291 -10.62566,7.72481 -16.42098,10.3005 2.36104,-12.44921 4.29067,-23.07363 5.79314,-31.87406 1.50253,-9.01496 2.79358,-16.52669 3.86682,-22.53672 1.28786,-6.00995 2.46625,-10.73299 3.53948,-14.16734 1.07319,-3.43425 2.25627,-5.79577 3.54413,-7.08357 2.36109,-0.64422 4.93388,-1.60638 7.72421,-2.89427 2.79039,-1.28789 5.36785,-2.89816 7.72889,-4.83 2.57572,-1.93174 4.61332,-4.07738 6.11579,-6.43836 1.71714,-2.57578 2.5763,-5.36917 2.5763,-8.37418 0,-4.29282 -1.39433,-7.72481 -4.18472,-10.3005 -2.79033,-2.57569 -6.65422,-3.86684 -11.59098,-3.86684 z m 572.45347,29.94304 c -3.64896,0 -7.08557,0.96723 -10.3052,2.89897 -3.21964,1.71713 -6.11644,4.1866 -8.69213,7.40623 -2.36107,3.00502 -4.29065,6.43701 -5.79315,10.3005 -1.50242,3.86358 -2.25368,7.83546 -2.25368,11.91366 0,5.79533 1.71369,10.3024 5.14794,13.52204 3.43426,3.21963 7.51408,4.82999 12.23623,4.82999 3.43425,0 6.65497,-0.85956 9.65999,-2.57632 3.21963,-1.93175 6.00831,-4.39651 8.36939,-7.40153 2.57569,-3.21972 4.51005,-6.76427 5.79785,-10.62785 1.50251,-4.0782 2.25368,-8.26135 2.25368,-12.55417 0,-5.36609 -1.61036,-9.66189 -4.82991,-12.88152 -3.00502,-3.21964 -6.86896,-4.83 -11.59101,-4.83 z m -415.65937,93.69125 c 3.86358,0 5.79784,2.15025 5.79784,6.44307 0,3.43425 -1.07511,7.61741 -3.22154,12.55417 -2.14643,4.93676 -5.15116,9.76775 -9.01472,14.4899 -3.64891,4.50752 -8.04798,8.37137 -13.1994,11.5911 -5.15143,3.21954 -10.62566,4.8299 -16.42099,4.8299 0,-4.07819 1.07511,-9.01713 3.22153,-14.81254 2.14643,-5.79533 4.82718,-11.26954 8.04686,-16.42101 3.43428,-5.15138 7.29812,-9.55051 11.59097,-13.19938 4.29285,-3.64896 8.69198,-5.47521 13.19945,-5.47521 z m 505.16584,0 c 3.86358,0 5.79315,2.15025 5.79315,6.44307 0,3.43425 -1.07517,7.61741 -3.22153,12.55417 -2.14646,4.93676 -5.1512,9.76775 -9.01478,14.4899 -3.64888,4.50752 -8.04792,8.37137 -13.19939,11.5911 -5.15147,3.21954 -10.62568,4.8299 -16.421,4.8299 0,-4.07819 1.07517,-9.01713 3.22153,-14.81254 2.14646,-5.79533 4.82719,-11.26954 8.04692,-16.42101 3.43425,-5.15138 7.2981,-9.55051 11.59092,-13.19938 4.29291,-3.64896 8.69665,-5.47521 13.20418,-5.47521 z" />
  </g>
</svg>
