<?xml version="1.0" encoding="UTF-8" standalone="no"?>
<!-- Created with Inkscape (http://www.inkscape.org/) -->

<svg
   width="11in"
   height="8.5in"
   viewBox="0 0 1056 816"
   version="1.1"
   id="svg1"
   inkscape:version="1.4.4 (dcaf3e7d9e, 2026-05-05)"
   sodipodi:docname="np-launch-criccut-example-koryn-cut.svg"
   xmlns:inkscape="http://www.inkscape.org/namespaces/inkscape"
   xmlns:sodipodi="http://sodipodi.sourceforge.net/DTD/sodipodi-0.dtd"
   xmlns="http://www.w3.org/2000/svg"
   xmlns:svg="http://www.w3.org/2000/svg">
  <sodipodi:namedview
     id="namedview1"
     pagecolor="#ffffff"
     bordercolor="#000000"
     borderopacity="0.25"
     inkscape:showpageshadow="2"
     inkscape:pageopacity="0.0"
     inkscape:pagecheckerboard="0"
     inkscape:deskcolor="#d1d1d1"
     inkscape:document-units="in"
     inkscape:zoom="0.47693914"
     inkscape:cx="565.06161"
     inkscape:cy="494.82204"
     inkscape:window-width="1536"
     inkscape:window-height="795"
     inkscape:window-x="0"
     inkscape:window-y="0"
     inkscape:window-maximized="1"
     inkscape:current-layer="layer1" />
  <defs
     id="defs1" />
  <g
     inkscape:label="Layer 1"
     inkscape:groupmode="layer"
     id="layer1">
    <path
       id="text1-3"
       style="font-size:60.4724px;font-family:Milkshake;-inkscape-font-specification:Milkshake;white-space:pre;fill:none;fill-opacity:1;stroke:#ffffff;stroke-width:0.37795276;stroke-opacity:1;stroke-dasharray:none"
       d="m 269.66519,42.189106 c -15.59103,1.17531 -30.87618,7.61161 -42.1381,18.53936 -42.10714,3.38663 -86.34482,12.27023 -119.66263,39.956094 -23.582901,20.74715 -33.037591,58.01584 -17.250351,86.12244 1.27188,3.88376 7.838171,8.58805 0.68919,9.80257 -25.01375,12.87433 -46.72664,37.85049 -46.3513,67.24662 0.99705,30.93284 23.46378,56.52295 48.61755,72.15857 35.236581,22.11631 83.775631,25.87357 119.271821,2.27943 11.13473,-7.21106 20.66175,-16.77669 28.37581,-27.53814 11.15568,25.36464 37.28427,43.21837 65.09696,43.66075 18.42662,0.87224 37.0456,-4.70877 52.07394,-15.37026 28.17748,19.01917 67.27927,20.23596 96.58324,2.9936 25.02772,1.06378 50.30109,-7.05767 70.13099,-22.33827 17.74656,29.38453 57.03106,41.3259 89.09048,31.14403 -11.41489,18.51636 -11.50192,43.0378 -0.009,61.54614 15.38684,26.50095 48.93962,39.01623 78.36912,32.34258 28.0768,-5.57052 51.266,-26.37324 63.6699,-51.66308 7.3507,-13.35825 11.9945,-28.18377 17.1563,-42.27815 4.0955,-1.79182 8.0092,-7.63561 12.3906,-3.86151 19.0594,9.44448 44.1749,11.13423 61.907,-2.02068 3.4993,-3.12124 6.2988,-6.97369 8.4381,-11.13412 27.3956,26.08259 73.2678,26.97984 103.1436,4.54128 17.8867,-12.74964 32.8315,-29.99383 42.55839,-49.67343 7.9629,-19.01597 0.4706,-44.42862 -19.44529,-52.5365 -6.4707,-3.35057 -15.175,-3.44875 -21.3929,-3.83394 4.4811,-20.6866 -0.4446,-43.972 -16.2148,-58.79721 -17.7352,-18.45086 -46.513,-24.89062 -70.4339,-15.7957 -7.2277,1.79256 -13.7926,5.47801 -20.7711,7.98075 -18.5099,-12.24649 -47.1107,-11.37236 -61.1676,7.2827 -14.9937,-13.14948 -36.2285,-24.08609 -56.3709,-16.85874 -9.0781,3.13568 -17.2319,9.11809 -22.6009,17.12135 -14.8084,-14.16436 -36.908,-24.34979 -57.2599,-16.55332 -10.33331,3.7225 -19.04753,11.52258 -24.19774,21.19253 -9.71017,-7.99258 -22.70437,-11.97094 -35.22304,-10.55641 -8.10869,-29.29569 -44.54833,-48.58724 -72.58568,-34.67127 -17.15995,8.43008 -28.51835,26.19494 -31.3328,44.84252 -23.16876,-23.91935 -60.60784,-29.02681 -91.22804,-18.21522 -31.16798,10.45434 -56.75546,35.36746 -69.34141,65.58778 -0.47498,-4.02084 -3.63971,-8.51729 -3.02593,-12.06588 22.60953,-23.94634 31.1981,-57.70718 55.79045,-80.03572 11.40047,-3.02505 25.14627,-4.61918 31.80303,-15.79091 12.71635,-16.19075 9.04197,-41.540484 -6.67997,-54.449824 -19.72931,-20.52318 -53.98552,-22.14014 -77.16817,-6.55253 -5.79513,3.24515 -11.12196,7.25705 -16.26517,11.44155 -9.08646,-16.51098 -28.2082,-26.93236 -47.03993,-25.19183 z"
       inkscape:export-filename="../eBrainVault/Attachments/np-launch-criccut-example-koryn.svg"
       inkscape:export-xdpi="96"
       inkscape:export-ydpi="96" />
    <path
       id="text1"
       style="font-size:60.4724px;font-family:Milkshake;-inkscape-font-specification:Milkshake;white-space:pre;fill:none;fill-opacity:1;stroke:#ffffff;stroke-width:0.37795276;stroke-dasharray:none;stroke-opacity:1"
       d="m 272.68431,367.34797 c -5.13354,0 -10.04702,1.22721 -14.73415,3.68237 -4.68714,2.23198 -9.59598,6.80992 -14.72952,13.72904 -8.25831,0.22316 -17.18431,0.88962 -26.78178,2.00562 -9.59748,1.11598 -19.08425,2.79365 -28.45854,5.02563 -9.37429,2.00877 -18.41523,4.5735 -27.11992,7.69825 -8.70468,3.12477 -16.40348,7.03163 -23.09939,11.71878 -6.47273,4.46393 -11.71709,9.59802 -15.73465,15.40114 -4.01754,5.80312 -6.02612,12.38501 -6.02612,19.75051 0,7.81192 1.89363,14.61903 5.688,20.42215 4.01754,5.80315 8.81608,10.71661 14.39602,14.73415 5.57993,3.79435 11.27477,6.69461 17.07789,8.7034 5.80313,2.00877 10.71196,3.01075 14.72953,3.01075 4.46393,0 6.69776,-1.44783 6.69776,-4.34939 0,-1.33916 -0.6711,-2.45609 -2.01026,-3.34888 l -3.34889,-2.67724 c -2.45516,-2.23198 -5.01989,-5.13223 -7.69827,-8.7034 -2.67835,-3.57114 -4.0205,-8.93046 -4.0205,-16.07277 0,-6.24951 1.11693,-11.82943 3.34888,-16.73976 2.23198,-4.91035 5.13224,-9.03781 8.7034,-12.38577 3.79436,-3.57114 8.03674,-6.58635 12.72389,-9.04151 4.68714,-2.45517 9.48568,-4.46375 14.39601,-6.02612 11.38306,-3.79438 24.44116,-5.91326 39.17218,-6.35966 -2.23198,3.34798 -4.68638,8.48205 -7.36476,15.40115 -2.45517,5.80314 -5.36005,13.83746 -8.708,24.10454 -3.12478,10.04388 -6.91671,22.87676 -11.38064,38.50054 -3.12478,11.60627 -6.58578,23.54747 -10.38014,35.8233 -3.79435,12.05266 -8.25736,23.10217 -13.3909,33.14606 -5.13354,10.04387 -11.15928,18.29879 -18.07841,24.77152 -6.9191,6.47271 -15.17867,9.71314 -24.77614,9.71314 -6.47273,0 -12.27324,-2.34416 -17.40678,-7.03128 -4.91034,-4.91033 -7.36939,-11.60714 -7.36939,-20.08864 0,-4.01754 0.78142,-7.9244 2.34375,-11.71875 1.5624,-3.79436 3.35038,-7.36569 5.35915,-10.71365 2.23198,-3.57114 4.57608,-6.69665 7.03125,-9.375 2.45516,-2.67837 4.57407,-4.79728 6.35963,-6.35965 l 5.02101,-5.02099 c 1.11598,-1.33919 1.67675,-2.90194 1.67675,-4.68752 0,-1.33919 -0.78133,-2.45609 -2.34375,-3.34888 -1.56237,-1.11598 -3.57095,-1.67213 -6.02614,-1.67213 -4.91033,0 -10.71547,1.22722 -17.41139,3.68239 -6.69591,2.23198 -13.1675,5.35746 -19.41702,9.375 -6.026331,4.01756 -11.160391,8.9264 -15.401141,14.72952 -4.24075,5.57994 -6.35963,11.71598 -6.35963,18.41189 0,5.80313 2.11888,12.05414 6.35963,18.75003 4.24075,6.69594 9.93096,12.9469 17.073271,18.75005 7.14231,5.80312 15.40185,10.71194 24.77614,14.72947 9.37429,3.79438 19.19662,5.69271 29.46367,5.69271 14.95421,0 27.45156,-3.12551 37.49543,-9.37503 10.04387,-6.47275 18.18849,-14.84259 24.43804,-25.10968 6.4727,-10.26708 11.60679,-21.87273 15.40112,-34.81816 3.79435,-12.94544 7.03016,-26.00354 9.70851,-39.17218 h 12.05228 0.33809 c 0.89274,1.11597 1.89477,2.56843 3.01075,4.35399 1.33918,1.78558 2.45609,4.24001 3.34888,7.36476 1.11598,2.90156 2.00765,6.58319 2.67726,11.04715 0.89274,4.46394 1.33862,9.82325 1.33862,16.07277 0,9.59747 0.4505,18.63379 1.34324,27.11527 1.116,8.48145 3.34518,15.84939 6.69314,22.09893 3.34796,6.24952 8.14649,11.26866 14.39604,15.06299 6.24954,3.57116 14.50908,5.35919 24.77612,5.35919 7.81189,0 15.06488,-2.12353 21.76082,-6.36433 6.9191,-4.24072 12.94484,-8.92429 18.07836,-14.05785 2.59532,-2.69517 5.12571,-5.5724 7.58711,-8.62464 0.0377,0.0842 0.0771,0.17122 0.11573,0.25475 2.90154,5.80314 6.69348,10.82228 11.38062,15.06301 4.91033,4.24077 10.49025,7.59152 16.73979,10.04667 6.4727,2.45514 13.16952,3.68239 20.08859,3.68239 7.14234,0 13.94948,-1.1169 20.42218,-3.34893 6.47271,-2.45517 12.38817,-5.8012 17.74492,-10.04198 4.68712,0.66963 9.03983,1.00046 13.05739,1.00046 9.82071,0 18.30088,-1.4478 25.44315,-4.34934 7.36549,-2.90161 13.50618,-6.25229 18.41651,-10.04664 5.77403,-3.99746 10.55044,-8.76851 14.3358,-14.31266 0.0166,-0.0251 0.0342,-0.0493 0.051,-0.0745 0.002,-0.002 0.007,-0.007 0.009,-0.009 3.57109,-5.13354 8.25489,-12.83257 14.05785,-23.09939 5.80322,-10.49029 11.94388,-23.88392 18.41666,-40.17731 3.79435,0.44637 7.14046,1.00717 10.04207,1.67675 2.45521,0.66956 4.68897,1.45096 6.69783,2.34375 2.23196,0.89284 3.34888,2.2303 3.34888,4.01588 0,2.67837 -1.11692,6.13941 -3.34888,10.38013 -2.23205,4.01757 -4.68648,8.7058 -7.36481,14.06253 -2.45523,5.35675 -4.79932,11.26754 -7.03137,17.74027 -2.23195,6.47273 -3.34885,13.39477 -3.34885,20.76026 0,4.68712 1.0019,9.03986 3.01077,13.05742 2.00877,4.01754 4.91369,7.58887 8.70805,10.71364 3.79435,2.90154 8.25736,5.2457 13.39093,7.03128 5.13363,1.78556 10.93407,2.67726 17.40694,2.67726 8.25834,0 15.84688,-2.12353 22.76603,-6.36433 7.14231,-4.24072 13.283,-8.92428 18.41656,-14.05785 1.24992,-1.24995 2.47585,-2.54092 3.67784,-3.86763 0.51987,1.54186 1.19201,3.05338 2.01487,4.53465 2.23202,4.01749 5.02195,7.47853 8.36994,10.38013 3.34791,2.90154 7.02961,5.13535 11.04721,6.69777 4.2407,1.78556 8.2579,2.67726 12.0523,2.67726 4.2407,0 8.4832,-0.78142 12.724,-2.34377 4.464,-1.33917 8.7017,-3.12715 12.7193,-5.35917 4.0176,-2.45515 7.6992,-5.1302 11.0472,-8.03174 3.5712,-3.12477 6.6966,-6.25025 9.375,-9.37502 -0.8928,4.01756 -1.8948,8.81607 -3.0107,14.39603 -1.116,5.57992 -2.5684,11.49533 -4.354,17.74487 -10.0441,4.01754 -19.4159,7.91978 -28.1206,11.71418 -8.4816,4.01756 -15.8495,8.14964 -22.099,12.39037 -6.2496,4.2408 -11.15843,8.70374 -14.7296,13.39093 -3.34807,4.91028 -5.02105,10.15469 -5.02105,15.7346 0,4.46394 1.0019,8.59605 3.01077,12.39038 2.00877,4.01756 4.68845,7.36367 8.03643,10.04204 3.57115,2.90154 7.58835,5.13535 12.05225,6.69777 4.6872,1.78556 9.5961,2.67726 14.7297,2.67726 10.0439,0 18.7493,-2.56938 26.1148,-7.7029 7.5887,-5.13352 14.0604,-11.71543 19.4172,-19.75056 5.3568,-8.03505 9.8244,-17.1863 13.3956,-27.45338 3.7944,-10.04385 7.1405,-20.08677 10.042,-30.13069 15.4007,-8.03512 27.7879,-16.07404 37.1622,-24.10915 2.2526,-1.98434 4.4014,-3.95172 6.4477,-5.91034 -0.054,1.53672 -0.09,3.05828 -0.09,4.5717 0,5.35673 3.0151,9.82439 9.0415,13.39555 6.0264,3.34794 13.5046,5.02104 22.4325,5.02104 2.4553,0 4.2385,-0.44585 5.3545,-1.33864 1.3392,-0.66966 2.0103,-2.45759 2.0103,-5.35917 0,-16.07018 1.673,-30.46577 5.021,-43.18804 3.5712,-12.94546 7.9238,-23.88003 13.0574,-32.80793 5.3568,-9.15108 10.9366,-16.07314 16.7397,-20.76029 6.0264,-4.91033 11.6064,-7.36473 16.7398,-7.36473 1.7856,0 3.3483,0.55617 4.6876,1.67213 1.3391,0.89281 2.0102,2.12462 2.0102,3.68699 0,5.13354 -0.8964,10.48823 -2.6819,16.06814 -1.7856,5.35675 -3.7942,11.04696 -6.0262,17.07327 -2.0087,6.02634 -3.9023,12.27732 -5.6879,18.75003 -1.7856,6.24952 -2.6819,12.83141 -2.6819,19.75053 0,9.37424 3.9069,17.41326 11.7188,24.10917 7.8119,6.47271 18.08,9.70854 30.8023,9.70854 8.2582,0 15.8468,-2.12353 22.7659,-6.36433 7.1423,-4.24072 13.2783,-8.92428 18.4118,-14.05785 6.0263,-6.02631 11.496,-12.9484 16.4063,-20.76029 0.4464,-1.11598 0.8919,-2.11795 1.3387,-3.01075 0.4463,-0.89274 0.7816,-1.67416 1.0051,-2.34377 0.4464,-0.89274 0.6714,-1.78445 0.6714,-2.67724 0,-1.78558 -0.7816,-3.34833 -2.3438,-4.6875 -1.3391,-1.33919 -2.9018,-2.01026 -4.6874,-2.01026 -1.116,0 -2.1226,0.3355 -3.0155,1.00513 -0.8927,0.44637 -1.5638,0.89222 -2.0101,1.33862 -0.8928,0.89274 -1.4489,1.67417 -1.6722,2.34375 -3.348,5.57994 -7.0296,10.3785 -11.0472,14.39601 -3.3478,3.7944 -7.2547,7.14046 -11.7187,10.04205 -4.2407,2.90153 -8.5934,4.35401 -13.0574,4.35401 -3.3479,0 -6.0277,-1.1169 -8.0363,-3.34888 -1.7856,-2.45514 -2.6773,-5.5807 -2.6773,-9.37503 0,-6.02635 0.8919,-12.05209 2.6773,-18.0784 2.0086,-6.24952 4.0172,-12.38558 6.0261,-18.41189 2.2319,-6.02633 4.2404,-11.83147 6.026,-17.41141 2.0089,-5.80312 3.0155,-11.26811 3.0155,-16.40165 0,-3.34796 -0.7816,-6.69869 -2.3438,-10.04662 -1.5623,-3.34798 -3.6813,-6.35852 -6.3596,-9.03689 -2.6784,-2.90156 -5.8038,-5.24569 -9.375,-7.03128 -3.348,-1.78556 -6.809,-2.68186 -10.3802,-2.68186 -7.1423,0 -13.8392,1.1169 -20.0887,3.34886 -6.2494,2.23198 -11.8294,4.68641 -16.7397,7.36476 -5.8032,3.12477 -11.0475,6.6961 -15.7346,10.71364 -5.1336,-8.03507 -9.7069,-13.05424 -13.7244,-15.06301 -4.0176,-2.00877 -7.2534,-3.01539 -9.7085,-3.01539 -4.2408,0 -7.2559,2.12353 -9.0416,6.36428 -2.0088,4.68714 -4.5735,11.15871 -7.6983,19.41702 -2.9016,8.25829 -5.8064,17.29923 -8.7081,27.11992 -2.8709,9.4963 -5.3029,19.42674 -7.3,29.79715 -4.4293,5.69046 -9.5858,11.3828 -15.466,17.07325 -6.9191,6.47271 -15.7349,12.83402 -26.4484,19.08356 l 4.0205,-15.06765 c 2.4552,-8.25829 4.9096,-17.07401 7.3648,-26.4483 2.6784,-9.37427 5.0226,-18.18999 7.0314,-26.44828 2.0087,-8.48149 3.6818,-15.84938 5.0209,-22.0989 1.3393,-6.24952 2.0057,-10.60223 2.0057,-13.0574 0,-1.33918 -0.8919,-3.01221 -2.6773,-5.02098 -1.7856,-2.23201 -4.0147,-4.35089 -6.6932,-6.35966 -2.6783,-2.00877 -5.5832,-3.79675 -8.708,-5.35914 -2.9016,-1.56238 -5.5766,-2.34373 -8.0318,-2.34373 -2.2319,0 -4.2406,0.56073 -6.0262,1.67673 -1.7856,1.116 -2.9025,2.67875 -3.3488,4.68752 -1.7856,5.80313 -3.684,12.27472 -5.6927,19.41703 -1.7856,7.14231 -3.9046,14.5102 -6.3597,22.09891 -2.2321,7.36552 -4.6865,14.72876 -7.3648,22.09428 -2.6783,7.14229 -5.5832,13.61388 -8.7081,19.417 -1.3392,2.67837 -3.1225,5.46833 -5.3546,8.36989 -2.2319,2.67838 -4.6863,5.24776 -7.3648,7.7029 -2.6783,2.23195 -5.4683,4.12561 -8.3699,5.68796 -2.9015,1.33926 -5.6914,2.01031 -8.3698,2.01031 -2.4552,0 -4.3535,-1.00203 -5.6928,-3.01077 -1.3391,-2.0088 -2.0102,-4.35295 -2.0102,-7.03128 0,-7.36549 1.117,-15.06891 3.3488,-23.10401 2.2321,-8.0351 4.6865,-15.8442 7.3649,-23.4329 2.9015,-7.58871 5.471,-14.62108 7.7029,-21.09378 2.232,-6.47273 3.3443,-11.94234 3.3443,-16.40628 0,-1.33918 -0.8918,-3.01221 -2.6773,-5.02098 -1.7856,-2.23201 -4.0148,-4.35089 -6.6931,-6.35966 -2.6784,-2.00877 -5.5833,-3.79675 -8.7081,-5.35914 -3.1247,-1.56238 -5.9148,-2.34373 -8.37,-2.34373 -2.0088,0 -3.7921,0.67108 -5.3545,2.01024 -1.5623,1.11598 -2.7896,2.56843 -3.6824,4.35401 -2.0087,4.68715 -4.5781,11.15874 -7.7029,19.41703 -2.9016,8.25829 -5.69149,17.07401 -8.36989,26.44827 -2.67833,9.1511 -5.02251,18.19205 -7.03128,27.11992 -0.49209,2.18581 -0.92099,4.28292 -1.29235,6.29479 -2.90312,4.47907 -6.04547,8.40772 -9.42143,11.78359 -3.34798,3.7944 -7.25015,7.14046 -11.71415,10.04205 -4.24073,2.90153 -8.59349,4.35401 -13.05749,4.35401 -3.34798,0 -6.02766,-1.00663 -8.03643,-3.01537 -2.00877,-2.00882 -3.01535,-4.90908 -3.01535,-8.7034 0,-6.69592 1.23183,-13.39276 3.68697,-20.08867 2.67842,-6.91913 5.57868,-13.50102 8.70347,-19.75054 3.1248,-6.24951 5.91471,-11.93973 8.36994,-17.07325 2.67843,-5.35675 4.01583,-9.93468 4.01583,-13.72903 0,-4.46394 -1.3374,-8.25587 -4.01583,-11.38062 -2.45523,-3.12477 -5.69099,-4.68752 -9.7086,-4.68752 -2.0087,0 -3.90703,0.22055 -5.69261,0.66704 -1.78559,0.44637 -3.68394,1.00717 -5.69271,1.67675 -2.00877,0.44638 -4.35294,0.89223 -7.03127,1.33865 -2.45524,0.44637 -5.58074,0.66694 -9.3751,0.66694 -4.01761,0 -7.36371,-0.55617 -10.04204,-1.67212 -2.67842,-1.11598 -4.01593,-2.90396 -4.01593,-5.35913 0,-2.67837 0.66688,-5.46833 2.00564,-8.36989 1.5624,-2.90156 2.34373,-6.58319 2.34373,-11.04713 0,-1.5624 -0.66598,-3.34575 -2.00555,-5.35452 -1.3393,-2.23196 -3.01686,-4.13024 -5.02573,-5.69263 -2.00877,-1.78556 -4.23795,-3.23802 -6.69318,-4.35399 -2.45515,-1.33919 -4.79932,-2.00564 -7.03128,-2.00564 -2.00877,0 -4.1277,0.66643 -6.35965,2.00564 -2.23196,1.33916 -4.35556,3.12716 -6.36433,5.35912 -2.00877,2.23198 -3.6818,4.90699 -5.02098,8.03176 -1.11596,2.90156 -1.67213,6.02706 -1.67213,9.37502 0,4.24075 0.55617,7.92701 1.67213,11.05176 1.11602,3.12477 2.3432,5.68947 3.68241,7.69827 1.5624,2.45516 3.46066,4.46374 5.69261,6.02612 -4.91038,15.84699 -10.26504,28.67987 -16.06812,38.50056 -4.77465,8.2124 -8.65374,14.54648 -11.63079,19.00013 -0.75069,0.78906 -1.22443,1.4875 -1.42662,2.09364 -3.5711,4.24061 -7.3678,8.03276 -11.38527,11.38064 -3.57114,2.90154 -7.6986,5.5812 -12.38577,8.03639 -4.68712,2.23198 -9.93153,3.34888 -15.73461,3.34888 h -3.01364 c -0.66956,-0.22293 -1.45096,-0.44834 -2.34375,-0.67162 6.47275,-8.4815 11.49649,-17.63277 15.06764,-27.45343 3.7944,-9.82069 5.68805,-19.19254 5.68805,-28.12041 0,-7.5887 -1.33753,-14.39582 -4.0159,-20.42215 -2.45519,-6.24952 -5.91625,-11.49391 -10.38016,-15.73465 -4.24077,-4.46394 -9.37019,-7.81467 -15.39649,-10.04665 -6.02636,-2.23196 -12.50255,-3.34886 -19.42165,-3.34886 -8.70473,0 -17.63068,1.89828 -26.78176,5.69263 -9.15108,3.79433 -17.52098,9.37427 -25.10968,16.73977 -7.58873,7.36549 -13.8397,16.51674 -18.75005,27.4534 -4.51843,10.32784 -6.85934,22.21281 -7.02196,35.65193 -3.88895,4.69312 -8.01978,8.65621 -12.39502,11.89012 -5.13359,3.7944 -10.15737,5.69263 -15.06765,5.69263 -5.80315,0 -11.04756,-3.12548 -15.73468,-9.375 -4.46394,-6.24952 -7.69972,-17.07379 -9.70851,-32.47441 -1.11596,-7.14231 -2.45349,-13.16805 -4.01586,-18.07839 -1.33916,-5.13354 -2.90192,-9.26564 -4.6875,-12.39042 -1.78558,-3.12474 -3.57354,-5.57915 -5.35915,-7.36473 -1.56239,-1.78559 -3.0102,-3.12309 -4.34936,-4.01588 5.35673,-2.67838 10.15524,-6.02911 14.39601,-10.04665 4.24073,-4.24075 8.36823,-9.03928 12.38575,-14.39601 4.01756,-5.57994 7.92442,-11.716 11.71877,-18.41189 3.79433,-6.69592 7.92184,-13.83858 12.38578,-21.42729 5.35675,-9.59747 10.49081,-17.18597 15.40112,-22.7659 4.9104,-5.80313 9.48833,-10.26614 13.72906,-13.39088 4.46396,-3.12477 8.48107,-5.13335 12.05224,-6.02615 3.57114,-1.11597 6.80697,-1.67675 9.70851,-1.67675 3.34793,0 5.02101,-1.4478 5.02101,-4.34937 0,-0.89283 -0.55618,-2.23494 -1.67213,-4.02052 -1.11598,-1.78556 -2.67875,-3.45862 -4.6875,-5.02101 -1.78558,-1.78556 -3.90911,-3.23802 -6.36425,-4.35399 -2.45515,-1.33919 -4.90958,-2.00564 -7.36476,-2.00564 -5.13359,0 -10.15273,0.89167 -15.06301,2.67726 -4.91036,1.78558 -9.93414,4.68581 -15.06766,8.70338 -5.13352,4.01756 -10.6032,9.37687 -16.40628,16.07279 -5.80319,6.69589 -12.04951,14.95083 -18.74537,24.77152 -4.01757,5.80312 -8.25995,11.83351 -12.72391,18.08303 -4.46396,6.24951 -9.1522,12.16033 -14.06253,17.74027 -4.91033,5.57991 -10.15472,10.60369 -15.73465,15.06763 -5.35673,4.46396 -11.04694,8.03527 -17.07327,10.71364 2.45518,-12.94543 4.46376,-23.99496 6.02614,-33.14604 1.56237,-9.37429 2.8999,-17.18338 4.01588,-23.4329 1.33919,-6.24952 2.56639,-11.163 3.68237,-14.73414 1.116,-3.57117 2.3432,-6.02558 3.68239,-7.36477 2.45516,-0.66955 5.13482,-1.67156 8.03638,-3.01074 2.90156,-1.33919 5.58122,-3.01687 8.03638,-5.02564 2.67838,-2.00877 4.79726,-4.23797 6.35963,-6.69314 1.78559,-2.67835 2.67726,-5.57863 2.67726,-8.70338 0,-4.46393 -1.44782,-8.03527 -4.34936,-10.71364 -2.90135,-2.6784 -6.91853,-4.02053 -12.05205,-4.02053 z m 161.37158,128.56368 c 3.79437,0 6.91521,1.67303 9.3704,5.02101 2.45516,3.12475 3.68234,8.47943 3.68234,16.06811 0,7.36553 -0.89167,15.85032 -2.67721,25.4478 -1.78558,9.37428 -4.35034,18.30031 -7.69827,26.78178 -1.33921,-0.44637 -2.56644,-0.66695 -3.68239,-0.66695 -1.33919,0 -3.01222,0.55617 -5.02104,1.67211 -1.78556,0.89276 -3.57354,2.12001 -5.3591,3.68239 -1.78558,1.56235 -3.34829,3.3457 -4.68752,5.35452 -1.11596,2.00874 -1.67213,3.90705 -1.67213,5.69263 0,2.90154 1.8937,5.58124 5.68803,8.03638 -3.34793,2.67838 -6.80434,4.01584 -10.37548,4.01584 -5.13359,0 -9.15075,-2.11886 -12.05229,-6.35959 -2.67837,-4.24079 -4.02055,-9.71036 -4.02055,-16.4063 0,-11.38303 1.22725,-21.7615 3.68239,-31.13577 2.67838,-9.5975 5.91879,-17.85242 9.71316,-24.77154 4.01752,-7.14231 8.2553,-12.6119 12.71926,-16.40626 4.46396,-4.01756 8.59604,-6.02614 12.3904,-6.02614 z m 268.50432,144.9653 c -2.0089,6.02631 -4.2381,11.83144 -6.6932,17.4114 -2.4552,5.80308 -5.1348,10.82222 -8.0364,15.06301 -2.9016,4.24078 -6.0271,7.59148 -9.3751,10.04663 -3.348,2.67837 -6.809,4.0159 -10.3803,4.0159 -4.0175,0 -6.026,-2.23381 -6.026,-6.69777 0,-2.23197 1.0065,-5.02188 3.0153,-8.36989 2.0089,-3.12477 4.7988,-6.47088 8.37,-10.04202 3.5712,-3.57117 7.8089,-7.25278 12.7193,-11.04711 4.9104,-3.57116 10.3801,-7.03222 16.4064,-10.38015 z" />
  </g>
</svg>
