<?xml version="1.0" encoding="UTF-8" standalone="no"?>
<!-- Created with Inkscape (http://www.inkscape.org/) -->

<svg
   width="111.30238mm"
   height="57.517372mm"
   viewBox="0 0 111.30238 57.517372"
   version="1.1"
   id="svg1"
   xmlns="http://www.w3.org/2000/svg"
   xmlns:svg="http://www.w3.org/2000/svg">
  <defs
     id="defs1">
    <rect
       x="76.884911"
       y="347.90421"
       width="578.55896"
       height="196.05652"
       id="rect2" />
  </defs>
  <g
     id="layer1"
     transform="translate(-24.690014,-88.352492)">
    <path
       id="text2-1"
       style="font-size:60.4724px;font-family:Milkshake;-inkscape-font-specification:Milkshake;writing-mode:lr-tb;direction:ltr;white-space:pre;shape-inside:url(#rect2);display:inline;fill:#d162a4;fill-opacity:1;stroke:none;stroke-width:0.298437;stroke-opacity:1"
       d="m 53.412386,88.354857 c -5.891998,0.298558 -11.888588,2.997698 -15.267115,7.969248 -2.186875,3.31445 -2.642805,7.586355 -1.62351,11.382305 -4.654491,1.33599 -9.062549,4.37907 -11.113282,8.875 -1.629299,4.03743 -0.357064,8.80731 2.501953,11.9668 4.152102,4.84912 10.884382,6.9998 17.136315,6.34679 3.557772,-0.40343 7.015883,-1.7797 9.820717,-4.01476 4.210523,4.40324 11.463696,5.45542 16.735346,2.38786 0.12724,0.29149 0.0888,0.935 0.20231,1.35064 0.64209,4.09505 3.10137,8.00069 6.87875,9.86502 3.74191,1.96132 8.73057,1.97061 12.07597,-0.80861 2.7556,-2.17712 4.28342,-5.67327 4.39278,-9.14647 3.09045,0.87257 6.49779,0.53754 9.36719,-0.89844 3.39127,1.8784 7.75925,1.75812 11.09179,-0.19336 4.25947,2.58525 10.03309,1.84911 13.81298,-1.28061 3.05732,-2.26115 5.63915,-5.42854 6.52087,-9.1859 0.43699,-3.45149 -2.23245,-6.97265 -5.67174,-7.48856 0.39113,-2.95093 -1.10118,-6.04802 -3.70232,-7.51928 -1.18273,-0.78694 -2.65591,-0.98687 -3.77792,-1.86427 -3.55089,-2.19186 -8.16399,-2.3699 -11.97093,-0.7395 1.38776,-3.40212 0.92502,-7.745505 -1.85338,-10.324685 -2.19698,-2.12907 -5.69177,-2.89523 -8.51966,-1.70656 -2.76649,-3.2572 -7.78491,-4.68089 -11.70011,-2.71647 -4.0075,1.738 -6.63874,5.46122 -8.8023,9.09535 -1.37059,2.331405 -2.50075,4.798865 -3.45853,7.326195 -3.38542,-2.75374 -8.20378,-3.45713 -12.300784,-2.18946 2.070374,-2.69717 3.234174,-6.409785 1.982424,-9.708975 -1.208793,-3.29833 -4.305173,-5.69734 -7.728172,-6.32094 -1.644909,-0.384815 -3.345021,-0.477561 -5.029642,-0.458358 z" />
    <path
       id="text2"
       style="font-size:60.4724px;font-family:Milkshake;-inkscape-font-specification:Milkshake;writing-mode:lr-tb;direction:ltr;white-space:pre;shape-inside:url(#rect2);display:inline;fill:#ffffff;fill-opacity:1;stroke:none;stroke-width:0.298;stroke-dasharray:none;stroke-opacity:1"
       d="m 54.269221,94.144285 c -1.432493,0 -2.896854,0.22304 -4.393013,0.6687 -1.46433,0.41384 -2.800945,1.03425 -4.010607,1.86192 -1.177828,0.79583 -2.149003,1.78271 -2.913001,2.96056 -0.763996,1.145985 -1.146182,2.467405 -1.146182,3.963575 0,1.52799 0.350251,3.02377 1.050581,4.4881 0.732164,1.43249 1.512246,2.83349 2.339909,4.20232 0.859497,1.337 1.639578,2.6422 2.339909,3.91553 0.732165,1.27333 1.098127,2.49843 1.098127,3.67626 0,1.81449 -0.557056,3.24744 -1.671219,4.29793 -1.114162,1.05049 -2.578521,1.57561 -4.393013,1.57561 -0.859497,0 -1.639579,-0.17538 -2.339909,-0.52554 -0.700331,-0.35017 -1.305029,-0.79571 -1.81436,-1.33687 -0.477498,-0.54117 -0.859684,-1.13016 -1.146183,-1.76683 -0.254666,-0.66849 -0.381889,-1.32083 -0.381889,-1.9575 0,-0.70033 0.09581,-1.30503 0.286804,-1.81436 0.191,-0.54116 0.429737,-1.01863 0.716235,-1.43247 0.318333,-0.41383 0.668068,-0.7803 1.050066,-1.09864 0.381998,-0.35017 0.764184,-0.68419 1.146183,-1.00252 0.350165,-0.25467 0.604612,-0.44576 0.763778,-0.57309 0.159166,-0.15917 0.238745,-0.35026 0.238745,-0.5731 0,-0.54116 -0.270156,-0.81183 -0.81132,-0.81183 -0.763997,0 -1.703237,0.20732 -2.817399,0.62115 -1.114162,0.382 -2.196334,0.90711 -3.24683,1.57562 -1.018663,0.66849 -1.894033,1.46428 -2.626197,2.38745 -0.732163,0.89132 -1.098641,1.83057 -1.098641,2.81739 0,1.01867 0.286898,2.05319 0.859896,3.10369 0.572998,1.0505 1.400207,2.00544 2.482536,2.86494 1.082329,0.8595 2.419465,1.57571 4.011124,2.14871 1.591661,0.54117 3.406271,0.81184 5.443596,0.81184 1.432494,0 2.832983,-0.25497 4.20181,-0.7643 1.400664,-0.50933 2.642512,-1.20932 3.724835,-2.10065 1.114168,-0.89133 2.005246,-1.94208 2.67374,-3.15174 0.668503,-1.20966 1.003038,-2.53058 1.003038,-3.96307 0,-0.955 -0.175381,-1.89423 -0.525543,-2.8174 -0.350169,-0.92316 -0.779995,-1.84617 -1.289327,-2.76934 -0.509332,-0.92316 -1.066389,-1.84617 -1.671217,-2.76934 -0.604835,-0.92316 -1.161884,-1.84669 -1.671216,-2.76985 -0.509332,-0.92317 -0.939166,-1.86189 -1.289328,-2.81688 -0.350169,-0.955 -0.525033,-1.92618 -0.525033,-2.913 0,-0.70034 0.143453,-1.3689 0.429948,-2.00557 0.286495,-0.668495 0.684397,-1.241265 1.193721,-1.718765 0.509333,-0.50933 1.114034,-0.90722 1.814366,-1.19373 0.700331,-0.31833 1.464187,-0.47749 2.291844,-0.47749 0.700332,0 1.257388,0.17487 1.671216,0.52503 0.445666,0.31834 0.6687,0.79582 0.6687,1.43248 0,0.764 -0.223034,1.544085 -0.6687,2.339915 -0.445665,0.76399 -0.891204,1.41634 -1.336862,1.9575 -0.254666,0.31833 -0.430055,0.55707 -0.525551,0.71624 -0.06367,0.12733 -0.09509,0.27078 -0.09509,0.42995 0,0.15916 0.07958,0.31832 0.238739,0.47748 0.159171,0.15917 0.349744,0.23875 0.572581,0.23875 0.413828,0 1.002816,-0.2068 1.766814,-0.62063 0.763998,-0.41383 1.512149,-0.95518 2.24431,-1.62368 0.732161,-0.66849 1.368794,-1.41664 1.909964,-2.24431 0.541161,-0.827645 0.811832,-1.671095 0.811832,-2.530595 0,-0.6685 -0.191094,-1.24126 -0.573093,-1.71877 -0.350157,-0.50933 -0.827636,-0.92346 -1.432464,-1.24179 -0.604828,-0.31834 -1.30482,-0.55707 -2.100647,-0.71624 -0.795828,-0.15916 -1.639782,-0.23875 -2.531113,-0.23875 z m 38.629729,1.33688 c -1.20967,0 -2.4353,0.54135 -3.6768,1.62368 -1.2415,1.08234 -2.4352,2.54671 -3.5812,4.393025 -1.146,1.81449 -2.22817,3.94742 -3.24683,6.39858 -0.98683,2.41932 -1.84649,4.98156 -2.57866,7.68739 -0.60633,2.24082 -1.10335,4.52569 -1.49138,6.85384 -0.36323,0.38765 -0.74159,0.74513 -1.13481,1.07281 -0.50933,0.41383 -1.09832,0.79601 -1.76682,1.14618 -0.66849,0.31833 -1.41664,0.47749 -2.24431,0.47749 h -0.42943 c -0.0955,-0.0318 -0.20701,-0.0638 -0.33434,-0.0956 0.92316,-1.20965 1.63937,-2.51486 2.14871,-3.91551 0.54116,-1.40067 0.81183,-2.73781 0.81183,-4.01113 0,-1.08233 -0.19109,-2.05299 -0.57309,-2.91249 -0.35017,-0.89133 -0.84386,-1.63947 -1.48053,-2.24431 -0.60483,-0.63665 -1.33675,-1.11413 -2.19625,-1.43246 -0.8595,-0.31834 -1.78251,-0.47749 -2.76934,-0.47749 -1.24149,0 -2.514761,0.27067 -3.819921,0.81183 -1.305159,0.54117 -2.499362,1.33696 -3.581693,2.38745 -1.082331,1.0505 -1.973409,2.3557 -2.673741,3.91553 -0.668494,1.52799 -1.002524,3.29444 -1.002524,5.29993 0,0.92317 0.190581,1.79853 0.57258,2.6262 0.413828,0.82766 0.955171,1.54387 1.623674,2.14871 0.700331,0.60483 1.496119,1.0823 2.38745,1.43247 0.923161,0.35016 1.878111,0.52555 2.864938,0.52555 1.018664,0 1.989837,-0.15916 2.912997,-0.4775 0.92316,-0.35016 1.76661,-0.82764 2.5306,-1.43247 0.6685,0.0955 1.28942,0.14314 1.86242,0.14314 1.40066,0 2.61006,-0.20679 3.62872,-0.62062 0.83686,-0.32968 1.56249,-0.70005 2.17713,-1.11053 -0.2737,2.15749 -0.41032,4.24666 -0.41032,6.26732 0,1.52798 0.23874,2.80125 0.71624,3.81992 0.4775,1.05049 1.06649,1.89393 1.76682,2.53059 0.70032,0.63666 1.46418,1.08272 2.29185,1.33739 0.82766,0.28649 1.59152,0.42943 2.29184,0.42943 0.764,0 1.4488,-0.17487 2.05363,-0.52504 0.60484,-0.35016 1.11373,-0.81192 1.52757,-1.38492 0.41383,-0.54116 0.73267,-1.14587 0.9555,-1.81436 0.22283,-0.63667 0.33383,-1.25759 0.33383,-1.86242 0,-1.01867 -0.14293,-1.94168 -0.42943,-2.76934 -0.2865,-0.79583 -0.60482,-1.4644 -0.95498,-2.00556 -0.382,-0.63667 -0.82807,-1.1775 -1.3374,-1.62316 1.20967,0 2.26043,-0.15916 3.15176,-0.47749 0.92317,-0.35016 1.70326,-0.76428 2.33992,-1.24179 0.33541,-0.23957 0.6426,-0.48698 0.92192,-0.74259 0.26495,0.81593 0.73735,1.52512 1.41749,2.12752 1.11417,0.955 2.57854,1.43248 4.39304,1.43248 1.17783,0 2.26001,-0.30261 3.24685,-0.90744 1.01867,-0.60484 1.89456,-1.2734 2.62672,-2.00556 0.1569,-0.1569 0.31092,-0.3178 0.46251,-0.48318 0.0457,0.14871 0.0985,0.29391 0.15813,0.43563 0.25467,0.60483 0.5887,1.12995 1.00253,1.57561 0.44567,0.44567 0.95508,0.78021 1.52809,1.00305 0.60483,0.25466 1.22575,0.38189 1.86242,0.38189 0.92317,0 1.78231,-0.20681 2.57814,-0.62064 0.79583,-0.41383 1.51204,-0.87559 2.14871,-1.38492 0.73216,-0.573 1.41696,-1.25728 2.05362,-2.05311 0.15917,1.33699 0.7,2.3553 1.62316,3.05562 0.92316,0.6685 2.0535,1.00305 3.39048,1.00305 1.17783,0 2.26,-0.30261 3.24684,-0.90744 1.01866,-0.60484 1.89403,-1.2734 2.6262,-2.00556 0.85949,-0.85951 1.63957,-1.84639 2.3399,-2.96055 0.0637,-0.15917 0.12753,-0.3021 0.1912,-0.42943 0.0637,-0.12733 0.11131,-0.23885 0.14315,-0.33435 0.0637,-0.12733 0.0956,-0.25455 0.0956,-0.38188 0,-0.25467 -0.11152,-0.4777 -0.33435,-0.6687 -0.191,-0.19099 -0.41402,-0.28629 -0.66869,-0.28629 -0.15917,0 -0.3021,0.0476 -0.42943,0.14315 -0.12733,0.0637 -0.22314,0.12753 -0.2868,0.1912 -0.12734,0.12733 -0.20692,0.23833 -0.23875,0.33383 -0.4775,0.79583 -1.00262,1.48062 -1.57562,2.05362 -0.47749,0.54116 -1.03455,1.01864 -1.67122,1.43247 -0.60482,0.41384 -1.22574,0.62064 -1.86241,0.62064 -0.41383,0 -0.74786,-0.12723 -1.00252,-0.38189 -0.22283,-0.25467 -0.33435,-0.57299 -0.33435,-0.95498 0,-0.79583 0.14345,-1.70314 0.42995,-2.7218 0.2865,-1.05049 0.60482,-2.0536 0.95498,-3.0086 0.35017,-0.98683 0.66848,-1.87791 0.95498,-2.67374 0.28649,-0.79583 0.42943,-1.36859 0.42943,-1.71876 0,-0.41383 -0.11152,-0.76409 -0.33435,-1.05058 -0.22282,-0.2865 -0.50921,-0.50953 -0.85937,-0.66869 -0.31833,-0.191 -0.6843,-0.31822 -1.09813,-0.38189 -0.382,-0.0955 -0.74795,-0.14315 -1.09812,-0.14315 -0.2865,-0.38199 -0.66869,-0.74847 -1.14618,-1.09864 -0.41384,-0.2865 -0.95518,-0.54094 -1.62368,-0.76377 -0.6685,-0.25467 -1.48,-0.38189 -2.43499,-0.38189 -1.30517,0 -2.61037,0.4136 -3.91553,1.24126 -1.30516,0.82767 -2.48314,1.92607 -3.53364,3.29489 -1.0505,1.337 -1.90965,2.849 -2.57815,4.53616 -0.43867,1.16245 -0.72658,2.33231 -0.86301,3.50987 -0.34328,0.48834 -0.70822,0.92629 -1.09502,1.31309 -0.4775,0.54116 -1.03456,1.01864 -1.67123,1.43247 -0.60483,0.41384 -1.22576,0.62064 -1.86243,0.62064 -0.4775,0 -0.85917,-0.15916 -1.14567,-0.47749 -0.25467,-0.35017 -0.38189,-0.79571 -0.38189,-1.33687 0,-1.146 0.12722,-2.2444 0.38189,-3.29489 0.2865,-1.08233 0.5886,-2.10115 0.90693,-3.05614 0.35016,-0.955 0.66848,-1.84608 0.95498,-2.67374 0.2865,-0.8595 0.42995,-1.65529 0.42995,-2.38746 0,-0.19099 -0.12722,-0.42973 -0.38189,-0.71623 -0.25466,-0.31833 -0.57298,-0.62094 -0.95498,-0.90744 -0.38201,-0.2865 -0.79613,-0.54095 -1.2418,-0.76378 -0.44567,-0.22283 -0.84356,-0.33434 -1.19372,-0.33434 -0.28651,0 -0.54096,0.0953 -0.7638,0.28628 -0.22282,0.15917 -0.39821,0.36597 -0.52554,0.62064 -0.2865,0.6685 -0.65247,1.56009 -1.09814,2.67425 -0.41383,1.11417 -0.81172,2.29214 -1.19373,3.53364 -0.382,1.24149 -0.71602,2.46711 -1.00253,3.67678 -0.14986,0.63274 -0.26081,1.21747 -0.33227,1.75441 -0.19611,0.23512 -0.40351,0.4776 -0.62271,0.72812 -0.41383,0.4775 -0.89131,0.92356 -1.43248,1.33739 -0.54116,0.38199 -1.14587,0.70031 -1.81437,0.95498 -0.6685,0.25466 -1.41665,0.38189 -2.24432,0.38189 -0.50933,0 -0.95539,-0.0639 -1.33739,-0.19121 -0.382,-0.15916 -0.70032,-0.31832 -0.95499,-0.47749 -0.31832,-0.191 -0.58848,-0.42973 -0.81131,-0.71623 0.0637,-0.82766 0.17466,-1.65539 0.33383,-2.48306 0.15917,-0.82765 0.36648,-1.60722 0.62114,-2.33938 0.8595,-0.70034 1.7663,-1.59194 2.7213,-2.67426 0.98684,-1.08233 1.94231,-2.24408 2.86547,-3.48558 0.955,-1.27332 1.84609,-2.59423 2.67376,-3.96306 0.85949,-1.36883 1.60765,-2.67403 2.24432,-3.91553 0.6685,-1.27333 1.19362,-2.43559 1.57562,-3.48609 0.382,-1.05049 0.57309,-1.90964 0.57309,-2.578135 0,-0.41383 -0.12722,-0.85989 -0.38189,-1.33739 -0.25466,-0.50933 -0.58921,-0.97059 -1.00304,-1.38442 -0.41384,-0.44567 -0.89131,-0.79592 -1.43248,-1.05059 -0.50933,-0.2865 -1.03446,-0.42995 -1.57562,-0.42995 z m 10.4573,3.1037 c -0.54117,0 -1.05058,0.14345 -1.52808,0.42996 -0.4775,0.25467 -0.90733,0.62063 -1.28933,1.098125 -0.35018,0.44566 -0.63655,0.95507 -0.85939,1.52807 -0.22283,0.573 -0.33435,1.16199 -0.33435,1.76682 0,0.85949 0.25497,1.52806 0.7643,2.00556 0.50934,0.47749 1.11403,0.71623 1.81437,0.71623 0.50934,0 0.98681,-0.12722 1.43248,-0.38189 0.4775,-0.28649 0.89111,-0.65297 1.24128,-1.09864 0.382,-0.4775 0.6689,-1.00261 0.8599,-1.57561 0.22283,-0.60484 0.33383,-1.22524 0.33383,-1.8619 0,-0.79584 -0.23874,-1.432975 -0.71624,-1.910475 -0.44567,-0.47751 -1.01844,-0.71625 -1.71877,-0.71625 z m -9.50232,0.0956 c 0.6685,0 1.00305,0.31832 1.00305,0.95499 0,0.477485 -0.15968,1.162285 -0.47801,2.053615 -0.2865,0.89133 -0.6844,1.8777 -1.19373,2.96002 -0.47751,1.0505 -1.03456,2.16513 -1.67123,3.34295 -0.60484,1.146 -1.24147,2.24388 -1.90997,3.29437 -0.6685,1.01867 -1.33708,1.9422 -2.00557,2.76986 -0.63668,0.82767 -1.20944,1.43236 -1.71878,1.81436 0.60484,-2.10099 1.27342,-4.17005 2.00558,-6.20737 0.73217,-2.06916 1.46409,-3.91571 2.19626,-5.5392 0.764,-1.62349 1.46451,-2.92869 2.10118,-3.91553 0.6685,-1.018645 1.22556,-1.528065 1.67122,-1.528065 z M 68.40324,112.48015 c 0.54117,0 0.98671,0.23873 1.33687,0.71624 0.35017,0.44566 0.52555,1.21003 0.52555,2.29236 0,1.05049 -0.12722,2.25989 -0.38189,3.62872 -0.25466,1.33699 -0.62114,2.61026 -1.09864,3.81992 -0.191,-0.0637 -0.36587,-0.0956 -0.52503,-0.0956 -0.191,0 -0.42974,0.0796 -0.71623,0.23873 -0.25467,0.12734 -0.50964,0.30273 -0.7643,0.52556 -0.25467,0.22282 -0.47717,0.47728 -0.66817,0.76377 -0.159173,0.28651 -0.23875,0.55718 -0.23875,0.81184 0,0.41383 0.27067,0.79602 0.81183,1.14618 -0.47749,0.382 -0.97119,0.5731 -1.480522,0.5731 -0.732169,0 -1.304931,-0.30262 -1.718759,-0.90744 -0.381999,-0.60483 -0.573093,-1.38491 -0.573093,-2.33991 0,-1.62349 0.174867,-3.10356 0.525029,-4.44056 0.381999,-1.36882 0.843765,-2.5468 1.384934,-3.53363 0.572999,-1.01866 1.177693,-1.79874 1.814361,-2.33991 0.63666,-0.573 1.22565,-0.85938 1.76681,-0.85938 z m 48.56152,0.33435 c 0.4775,0 0.87539,0.17487 1.19373,0.52503 0.35016,0.31833 0.52555,0.82774 0.52555,1.52807 0,0.92316 -0.23874,2.00586 -0.71624,3.24735 -0.44566,1.20966 -1.00272,2.37141 -1.67121,3.48557 -0.66851,1.11416 -1.38472,2.05341 -2.14872,2.81741 -0.73216,0.76399 -1.38502,1.14566 -1.95802,1.14566 -0.92316,0 -1.38441,-0.71622 -1.38441,-2.14871 0,-0.98683 0.19058,-2.10093 0.57258,-3.34243 0.382,-1.2415 0.85947,-2.38754 1.43247,-3.43803 0.60483,-1.08233 1.2734,-1.98964 2.00556,-2.7218 0.73216,-0.73216 1.44838,-1.09812 2.14871,-1.09812 z M 83.1579,127.13972 c 0.57299,0.6685 1.09811,1.40042 1.57561,2.19625 0.382,0.66849 0.73225,1.46429 1.05059,2.38745 0.35016,0.92316 0.52555,1.89434 0.52555,2.913 0,0.382 -0.0319,0.76367 -0.0956,1.14567 -0.0637,0.41382 -0.15947,0.77979 -0.28681,1.09812 -0.12733,0.31833 -0.3022,0.5733 -0.52503,0.7643 -0.191,0.22283 -0.42974,0.33434 -0.71624,0.33434 -0.41382,0 -0.84365,-0.36647 -1.28932,-1.09864 -0.41383,-0.73216 -0.62063,-2.03685 -0.62063,-3.91501 0,-0.63666 0.0157,-1.30523 0.0475,-2.00556 0.0318,-0.66849 0.08,-1.28942 0.14366,-1.86242 0.0637,-0.66849 0.12701,-1.32083 0.19068,-1.9575 z" />
  </g>
</svg>
