<?xml version="1.0" encoding="UTF-8" standalone="no"?>
<!-- Created with Inkscape (http://www.inkscape.org/) -->

<svg
   width="106.10097mm"
   height="32.504799mm"
   viewBox="0 0 106.10097 32.504799"
   version="1.1"
   id="svg1"
   xmlns="http://www.w3.org/2000/svg"
   xmlns:svg="http://www.w3.org/2000/svg">
  <defs
     id="defs1">
    <rect
       x="96.10614"
       y="615.07928"
       width="551.64923"
       height="123.01586"
       id="rect3" />
  </defs>
  <g
     id="layer1"
     transform="translate(-24.957292,-155.50195)">
    <path
       id="text3-6"
       style="font-size:60.4724px;font-family:Milkshake;-inkscape-font-specification:Milkshake;writing-mode:lr-tb;direction:ltr;white-space:pre;shape-inside:url(#rect3);display:inline;fill:#f67d86;fill-opacity:1;stroke:none;stroke-width:0.2224"
       d="m 48.619508,155.51623 c -1.655969,0.0903 -3.281421,0.78556 -4.455078,1.96289 -4.419581,0.34494 -9.072345,1.23873 -12.589327,4.12094 -2.377565,2.06534 -3.393347,5.75175 -1.883143,8.61425 0.221081,0.45984 0.490587,0.89666 0.800595,1.30192 -2.762725,1.16544 -5.31372,3.61689 -5.528393,6.75055 -0.143623,3.09138 1.985748,5.77276 4.415984,7.44226 3.665521,2.5986 8.950627,3.18922 12.813581,0.67438 1.34373,-0.88375 2.477215,-2.07026 3.355469,-3.41407 0.853559,2.48995 3.069932,4.45908 5.684847,4.88456 2.330865,0.4641 4.852436,-0.14421 6.719449,-1.61307 3.230618,2.21047 7.636099,2.26139 11.09961,0.56445 1.932605,1.29391 4.661532,1.66665 6.710142,0.44427 0.58513,-0.42075 1.00312,-1.04697 1.24689,-1.71966 2.59936,2.86901 7.30681,3.24441 10.46782,1.09617 0.36411,-0.1047 0.68262,0.51961 1.08687,0.64406 1.49064,0.89155 3.38994,0.9164 4.95276,0.20146 2.12185,-0.5068 4.07916,0.61611 6.21753,0.51147 1.550726,0.0423 3.077146,-0.48167 4.376576,-1.30668 2.88747,1.92172 6.95957,1.66254 9.67774,-0.43945 3.83939,2.65755 9.25187,2.14706 12.96054,-0.501 2.01867,-1.39862 3.8758,-3.40138 4.30118,-5.89548 0.11854,-1.84696 -1.25842,-3.64812 -3.05664,-4.05469 0.59027,-2.83527 -0.75868,-5.95768 -3.30132,-7.38232 -2.36113,-1.42908 -5.43281,-1.28007 -7.79198,0.0754 -1.25569,0.6449 -2.37833,1.53979 -3.32272,2.58627 -0.16732,-0.40404 -0.62991,-0.78803 4.7e-4,-0.92729 3.04075,-1.66766 4.54433,-6.01805 2.62594,-9.0428 -1.16369,-1.98153 -3.79908,-2.75471 -5.90185,-1.91936 -3.33305,1.15126 -5.2767,5.27187 -3.95112,8.55742 -0.49331,0.21407 -0.9463,0.52229 -1.33008,0.89843 -1.30215,-1.26528 -3.43922,-1.65658 -5.027346,-0.69922 -1.1011,0.26611 -2.18124,-0.32637 -3.28488,-0.3671 -2.44544,-0.41907 -5.34465,-0.26199 -7.12137,1.69913 -0.81448,0.88485 -1.26146,2.02401 -1.64648,3.14454 -0.67013,-3.48708 -4.60339,-5.78566 -7.989,-4.84997 -1.07618,0.26341 -2.11535,0.65684 -3.1067,1.15075 -1.88141,-1.37077 -4.932168,-1.31641 -6.342512,0.70746 -0.23782,0.4102 -0.588589,-0.44267 -0.911398,-0.51606 -2.217422,-1.71668 -5.3977,-1.99379 -7.89011,-0.71697 -3.190744,1.3865 -5.593922,4.28565 -6.664577,7.56463 -0.146981,-0.83995 -0.327953,-1.68495 -0.683594,-2.46484 2.534034,-2.5869 3.475882,-6.33736 6.167969,-8.79297 1.213848,-0.37747 2.76203,-0.46594 3.430727,-1.73343 1.2956,-1.82014 0.478648,-4.49739 -1.316835,-5.66749 -2.116675,-1.67788 -5.271167,-1.55539 -7.442687,-0.0415 -0.663647,0.34579 -1.277316,0.96139 -1.835268,1.32526 -0.804606,-1.79513 -2.762876,-3.01934 -4.738281,-2.85742 z" />
    <path
       id="text3"
       style="font-size:60.4724px;font-family:Milkshake;-inkscape-font-specification:Milkshake;writing-mode:lr-tb;direction:ltr;white-space:pre;shape-inside:url(#rect3);display:inline;fill:#ffffff;fill-opacity:1;stroke:none;stroke-width:0.222;stroke-dasharray:none"
       d="m 48.828896,158.69501 c -0.545625,0 -1.067619,0.13077 -1.565799,0.39171 -0.498174,0.23723 -1.020173,0.72343 -1.565793,1.45883 -0.877737,0.0237 -1.826263,0.0948 -2.846337,0.21343 -1.02008,0.11861 -2.028273,0.29658 -3.024621,0.53381 -0.996354,0.2135 -1.957332,0.48644 -2.882514,0.81855 -0.925183,0.33212 -1.743465,0.74723 -2.455147,1.24541 -0.687956,0.47445 -1.245756,1.02032 -1.672765,1.63711 -0.427008,0.61679 -0.640275,1.31624 -0.640275,2.09909 0,0.8303 0.201333,1.55414 0.604616,2.17093 0.427009,0.61679 0.937075,1.13827 1.53014,1.56528 0.593065,0.40329 1.198087,0.71202 1.814878,0.92552 0.61679,0.21351 1.138784,0.3204 1.565793,0.3204 0.474454,0 0.711587,-0.15463 0.711587,-0.46302 0,-0.14234 -0.07109,-0.26064 -0.213425,-0.35554 l -0.356049,-0.28473 c -0.260953,-0.23723 -0.533369,-0.54545 -0.818041,-0.92501 -0.284673,-0.37956 -0.427362,-0.9493 -0.427362,-1.70842 0,-0.66424 0.118822,-1.25733 0.35605,-1.77923 0.237227,-0.52189 0.545442,-0.96035 0.925006,-1.31619 0.403289,-0.37957 0.8542,-0.70023 1.352374,-0.96119 0.498174,-0.26094 1.00824,-0.4742 1.53014,-0.64027 1.209856,-0.40328 2.597353,-0.62848 4.163052,-0.67592 -0.237227,0.35584 -0.497709,0.90119 -0.782381,1.63659 -0.260947,0.61679 -0.569687,1.47087 -0.925524,2.56212 -0.332118,1.06752 -0.73529,2.43166 -1.209744,4.09225 -0.332118,1.23358 -0.700007,2.50277 -1.103296,3.80753 -0.403283,1.28102 -0.877543,2.45525 -1.423169,3.52277 -0.545619,1.06753 -1.185924,1.94496 -1.921325,2.63292 -0.735407,0.68796 -1.613356,1.03198 -2.633436,1.03198 -0.687956,0 -1.304911,-0.24907 -1.85053,-0.74724 -0.5219,-0.5219 -0.7829,-1.23329 -0.7829,-2.13476 0,-0.42701 0.08302,-0.84211 0.249084,-1.2454 0.166056,-0.40328 0.355967,-0.78311 0.569475,-1.13895 0.237227,-0.37956 0.486287,-0.71165 0.74724,-0.99632 0.260947,-0.28467 0.486664,-0.50987 0.67644,-0.67593 l 0.533304,-0.53381 c 0.118611,-0.14234 0.178284,-0.30838 0.178284,-0.49816 0,-0.14234 -0.08302,-0.26116 -0.249079,-0.35605 -0.166062,-0.11862 -0.37984,-0.17778 -0.640792,-0.17778 -0.521894,0 -1.138332,0.13025 -1.850013,0.3912 -0.711682,0.23722 -1.39972,0.56931 -2.063956,0.99632 -0.640516,0.42701 -1.186383,0.94901 -1.637111,1.56579 -0.450729,0.59307 -0.675928,1.24583 -0.675928,1.95751 0,0.61679 0.225199,1.28096 0.675928,1.99264 0.450728,0.71168 1.05575,1.37586 1.814877,1.99265 0.759127,0.61678 1.637076,1.13878 2.63343,1.56579 0.996354,0.40328 2.03983,0.60462 3.131075,0.60462 1.589419,0 2.917767,-0.33209 3.985286,-0.99633 1.06752,-0.68795 1.933541,-1.57732 2.597777,-2.66857 0.687956,-1.09124 1.233823,-2.32515 1.637106,-3.70106 0.403289,-1.37592 0.747305,-2.76342 1.031978,-4.16306 h 1.281062 0.03514 c 0.09489,0.11862 0.20178,0.27273 0.32039,0.4625 0.142337,0.18979 0.261159,0.45079 0.35605,0.7829 0.118616,0.3084 0.213572,0.69964 0.284737,1.17409 0.09489,0.47446 0.142113,1.04367 0.142113,1.70791 0,1.02007 0.04773,1.98105 0.142625,2.88251 0.118616,0.90146 0.355743,1.68446 0.711587,2.3487 0.355838,0.66423 0.865904,1.19764 1.53014,1.60093 0.664236,0.37957 1.541667,0.56948 2.632912,0.56948 0.830292,0 1.601358,-0.2252 2.31304,-0.67593 0.735401,-0.45074 1.375705,-0.94886 1.921325,-1.49448 0.275481,-0.28608 0.54436,-0.59127 0.805636,-0.91519 0.306563,0.62133 0.72574,1.16365 1.258325,1.62677 0.54562,0.45073 1.198375,0.80668 1.957502,1.06764 0.759127,0.26094 1.589343,0.39119 2.490806,0.39119 1.352192,0 2.514496,-0.2252 3.487124,-0.67593 0.996354,-0.45074 1.826569,-0.94886 2.490805,-1.49448 0.07443,-0.0609 0.147544,-0.1229 0.219622,-0.18552 -0.0042,0.13376 -0.0062,0.26684 -0.0062,0.39894 0,0.56934 0.320155,1.04361 0.960665,1.42317 0.640516,0.35584 1.435443,0.53382 2.384352,0.53382 0.260947,0 0.450862,-0.0472 0.569472,-0.14212 0.14234,-0.0712 0.21343,-0.26107 0.21343,-0.56947 0,-1.70803 0.17798,-3.23822 0.53381,-4.59041 0.37957,-1.37592 0.84189,-2.53823 1.38752,-3.48713 0.56934,-0.97263 1.16243,-1.70789 1.77922,-2.20607 0.64051,-0.5219 1.23359,-0.7829 1.77921,-0.7829 0.18979,0 0.35583,0.0592 0.49817,0.17777 0.14234,0.0949 0.21342,0.22565 0.21342,0.39171 0,0.54562 -0.0944,1.11484 -0.28422,1.7079 -0.18979,0.56935 -0.40356,1.17436 -0.64079,1.81488 -0.2135,0.64051 -0.41535,1.30468 -0.60512,1.99264 -0.18979,0.66424 -0.28423,1.36369 -0.28423,2.0991 0,0.99635 0.4151,1.85044 1.2454,2.56212 0.8303,0.68795 1.92152,1.03198 3.27372,1.03198 0.87775,0 1.6841,-0.2252 2.4195,-0.67593 0.75913,-0.45074 1.41138,-0.94886 1.95701,-1.49448 0.64041,-0.64042 1.22173,-1.37594 1.74356,-2.20607 l 5.2e-4,-5.2e-4 c 0.56935,-0.80657 1.31655,-2.13492 2.24174,-3.98528 0.42701,-0.8303 0.81825,-1.42339 1.17409,-1.77922 0.37957,-0.37957 0.83048,-0.56896 1.35239,-0.56896 0.68795,0 1.35214,0.1183 1.99265,0.35553 0.64051,0.23723 1.30469,0.35605 1.99266,0.35605 -0.35584,0.42701 -0.81869,0.90127 -1.38804,1.42317 -0.56935,0.49818 -1.17386,1.02017 -1.81437,1.5658 l -1.92186,1.56579 c -0.64051,0.5219 -1.22167,1.02003 -1.74357,1.49448 -0.5219,0.47446 -0.94895,0.9015 -1.28107,1.28107 -0.30839,0.37956 -0.4625,0.68777 -0.4625,0.925 0,0.16606 0.0472,0.35597 0.1421,0.56948 0.0949,0.18978 0.22566,0.37969 0.39171,0.56947 0.16607,0.16606 0.34405,0.30823 0.53383,0.42685 0.2135,0.11861 0.42676,0.17777 0.64027,0.17777 0.42701,0 0.92514,-0.11831 1.49449,-0.35554 0.56935,-0.2135 1.26933,-0.32039 2.09963,-0.32039 0.56934,0 1.06747,0.0353 1.49449,0.10645 0.42701,0.0712 0.83019,0.14277 1.20975,0.21394 0.37956,0.0949 0.75939,0.17791 1.13895,0.24908 0.37957,0.0712 0.81855,0.10646 1.31673,0.10646 0.877736,0 1.684096,-0.2252 2.419496,-0.67593 0.75913,-0.45074 1.41136,-0.94886 1.95698,-1.49448 0.1152,-0.1152 0.22868,-0.23369 0.34004,-0.35502 0.2038,0.5547 0.54126,1.04055 1.01234,1.45779 0.83029,0.71168 1.92151,1.06764 3.2737,1.06764 0.87774,0 1.68409,-0.2252 2.41949,-0.67593 0.75913,-0.45074 1.41188,-0.94886 1.9575,-1.49448 0.28212,-0.28212 0.55274,-0.58283 0.81184,-0.90176 0.30597,0.61572 0.72286,1.15357 1.25161,1.61334 0.54562,0.45073 1.19837,0.80668 1.9575,1.06764 0.75913,0.26094 1.58934,0.39119 2.4908,0.39119 1.3522,0 2.5145,-0.2252 3.48713,-0.67593 0.99635,-0.45074 1.82657,-0.94886 2.4908,-1.49448 0.78285,-0.64052 1.43561,-1.3763 1.95751,-2.20659 0.0474,-0.11861 0.0947,-0.22499 0.1421,-0.31988 0.0474,-0.0949 0.0833,-0.17791 0.10697,-0.24908 0.0474,-0.0949 0.0708,-0.18984 0.0708,-0.28473 0,-0.18978 -0.083,-0.35583 -0.24908,-0.49816 -0.14234,-0.14234 -0.30838,-0.21343 -0.49816,-0.21343 -0.11861,0 -0.2255,0.0353 -0.32039,0.10645 -0.0949,0.0474 -0.16598,0.0952 -0.21343,0.14263 -0.0949,0.0949 -0.15404,0.17792 -0.17776,0.24908 -0.40329,0.61679 -0.88949,1.16214 -1.45883,1.6366 -0.47446,0.40328 -1.0556,0.7831 -1.74356,1.13895 -0.68796,0.33211 -1.44709,0.49816 -2.27738,0.49816 -0.85402,0 -1.5898,-0.28487 -2.20659,-0.85421 -0.61679,-0.56935 -0.925,-1.38763 -0.925,-2.45515 0.18978,0.0474 0.36776,0.0827 0.53381,0.10645 0.28467,0.0712 0.55761,0.10697 0.81856,0.10697 1.11497,0 2.04014,-0.18991 2.77554,-0.56948 0.75912,-0.40328 1.35221,-0.87754 1.77922,-1.42316 0.45073,-0.54562 0.77088,-1.11484 0.96066,-1.70791 0.18978,-0.61679 0.28474,-1.13879 0.28474,-1.56579 0,-0.47446 -0.10689,-0.9373 -0.32039,-1.38803 -0.18978,-0.45074 -0.46272,-0.84197 -0.81856,-1.17409 -0.35584,-0.35585 -0.77095,-0.64071 -1.2454,-0.85421 -0.47445,-0.21351 -0.98452,-0.31988 -1.53014,-0.31988 -0.78285,0 -1.625,0.21326 -2.52646,0.64027 -0.87774,0.42701 -1.69602,1.04396 -2.45515,1.85053 -0.75913,0.78285 -1.38801,1.73189 -1.88619,2.84686 -0.49817,1.11496 -0.74724,2.34836 -0.74724,3.70055 0,0.0757 0.002,0.15078 0.005,0.22531 -0.27836,0.40974 -0.57622,0.77362 -0.894,1.0914 -0.35584,0.40329 -0.77095,0.75872 -1.2454,1.06712 -0.45073,0.30839 -0.91358,0.46302 -1.38803,0.46302 -0.35584,0 -0.64019,-0.11882 -0.8537,-0.35605 -0.18978,-0.26095 -0.28473,-0.59303 -0.28473,-0.99632 0,-0.85402 0.095,-1.6723 0.28473,-2.45515 0.21351,-0.80657 0.43871,-1.5657 0.67593,-2.27738 0.26095,-0.71168 0.49808,-1.37585 0.71158,-1.99264 0.21351,-0.64051 0.3204,-1.2336 0.3204,-1.77922 0,-0.14234 -0.095,-0.32031 -0.28474,-0.53382 -0.18978,-0.23722 -0.42691,-0.46294 -0.71158,-0.67644 -0.28467,-0.21351 -0.59289,-0.4029 -0.92501,-0.56896 -0.33212,-0.16606 -0.62892,-0.24908 -0.88987,-0.24908 -0.2135,0 -0.40341,0.0711 -0.56947,0.21342 -0.16606,0.11861 -0.2963,0.27272 -0.39119,0.46251 -0.21351,0.49818 -0.48644,1.16235 -0.81855,1.99264 -0.3084,0.83029 -0.60468,1.70825 -0.88936,2.63343 -0.28467,0.92519 -0.53374,1.83843 -0.74724,2.73988 -0.12548,0.52982 -0.2144,1.0145 -0.26613,1.45418 -0.23068,0.31616 -0.47387,0.60254 -0.73019,0.85886 -0.35584,0.40329 -0.77147,0.75872 -1.24592,1.06712 -0.45073,0.30839 -0.91306,0.46302 -1.38752,0.46302 -0.56935,0 -1.079406,-0.095 -1.530146,-0.28473 -0.45073,-0.18979 -0.92499,-0.39163 -1.42317,-0.60514 -0.47446,-0.2135 -1.0084,-0.41483 -1.60146,-0.60461 -0.56935,-0.18978 -1.2574,-0.28474 -2.06397,-0.28474 0.75913,-0.75912 1.66044,-1.55406 2.70424,-2.38435 1.06753,-0.85402 2.08766,-1.66036 3.060296,-2.41949 0.97263,-0.75913 1.80286,-1.43523 2.49081,-2.0283 0.68796,-0.59307 1.03198,-1.02011 1.03198,-1.28106 0,-0.18978 -0.0472,-0.39163 -0.14211,-0.60513 -0.0712,-0.23722 -0.17806,-0.45049 -0.32039,-0.64027 -0.14234,-0.2135 -0.30838,-0.39148 -0.49817,-0.53382 -0.16605,-0.14233 -0.3321,-0.21342 -0.49816,-0.21342 -0.26095,0 -0.5811,0.11831 -0.96067,0.35554 -0.37956,0.2135 -0.84241,0.32039 -1.388026,0.32039 -0.40329,0 -0.80647,-0.0358 -1.20975,-0.10698 -0.37957,-0.0712 -0.78275,-0.14225 -1.20975,-0.21341 -0.42701,-0.0949 -0.88934,-0.17792 -1.38753,-0.24909 -0.47445,-0.0712 -0.99645,-0.10645 -1.5658,-0.10645 -0.80658,0 -1.48269,0.15411 -2.02831,0.4625 -0.52191,0.28467 -0.94895,0.96078 -1.28107,2.0283 -0.5219,1.68431 -1.09112,3.04846 -1.70791,4.09226 -0.50745,0.8728 -0.91971,1.54564 -1.23611,2.019 -0.0799,0.0839 -0.13044,0.15827 -0.15193,0.22272 -0.35584,0.59307 -0.74708,1.10313 -1.17409,1.53014 -0.35585,0.40329 -0.77096,0.75872 -1.24541,1.06712 -0.45074,0.30839 -0.91359,0.46302 -1.38804,0.46302 -0.35585,0 -0.64071,-0.11882 -0.85422,-0.35605 -0.18978,-0.26095 -0.28422,-0.59303 -0.28422,-0.99632 0,-0.64051 0.0944,-1.28082 0.28422,-1.92133 0.21351,-0.66423 0.42729,-1.31699 0.64079,-1.9575 0.23723,-0.64051 0.45049,-1.25695 0.64028,-1.85002 0.21351,-0.61679 0.3204,-1.19794 0.3204,-1.74356 0,-0.35584 -0.083,-0.7118 -0.24909,-1.06764 -0.16606,-0.35584 -0.39126,-0.67599 -0.67593,-0.96066 -0.28468,-0.3084 -0.61676,-0.55798 -0.99633,-0.74776 -0.35584,-0.18978 -0.72373,-0.28422 -1.10329,-0.28422 -0.75913,0 -1.47053,0.11831 -2.13477,0.35554 -0.66424,0.23722 -1.25732,0.49822 -1.77922,0.78289 -0.61679,0.33212 -1.17459,0.71194 -1.67277,1.13895 -0.54562,-0.85402 -1.03181,-1.38795 -1.45882,-1.60145 -0.42701,-0.21351 -0.77103,-0.32039 -1.03198,-0.32039 -0.450734,0 -0.770884,0.22571 -0.960665,0.67644 -0.213508,0.49818 -0.486441,1.1857 -0.818553,2.06344 -0.308398,0.87774 -0.616614,1.83871 -0.925012,2.88251 -0.308393,1.02007 -0.569392,2.08742 -0.782894,3.20238 -1.94e-4,8.8e-4 -3.29e-4,0.002 -5.18e-4,0.003 -0.34973,0.47189 -0.75276,0.89808 -1.209231,1.27848 -0.474455,0.40328 -1.056122,0.7831 -1.744077,1.13895 -0.687962,0.33211 -1.447089,0.49816 -2.277381,0.49816 -0.854018,0 -1.589278,-0.28487 -2.206068,-0.85421 -0.616791,-0.56935 -0.925007,-1.38763 -0.925007,-2.45515 0.189782,0.0474 0.36776,0.0827 0.533816,0.10645 0.284672,0.0712 0.557606,0.10697 0.818553,0.10697 1.11497,0 2.040141,-0.18991 2.775542,-0.56948 0.759127,-0.40328 1.35221,-0.87754 1.779219,-1.42316 0.450734,-0.54562 0.770884,-1.11484 0.960665,-1.70791 0.189782,-0.61679 0.284738,-1.13879 0.284738,-1.56579 0,-0.47446 -0.10689,-0.9373 -0.320391,-1.38803 -0.189782,-0.45074 -0.462715,-0.84197 -0.818559,-1.17409 -0.355837,-0.35585 -0.770948,-0.64071 -1.245402,-0.85421 -0.474449,-0.21351 -0.984515,-0.31988 -1.530135,-0.31988 -0.782852,0 -1.625001,0.21326 -2.526464,0.64027 -0.877738,0.42701 -1.69602,1.04396 -2.455147,1.85053 -0.759126,0.78285 -1.388015,1.73189 -1.886189,2.84686 -0.498174,1.11496 -0.747241,2.34836 -0.747241,3.70055 0,0.0458 4.3e-4,0.0916 0.0015,0.13694 -0.392692,0.46229 -0.808244,0.85551 -1.246951,1.17977 -0.545619,0.40329 -1.079552,0.60462 -1.601452,0.60462 -0.61679,0 -1.174073,-0.33209 -1.672247,-0.99633 -0.474454,-0.66423 -0.818476,-1.8146 -1.031978,-3.45146 -0.118616,-0.75913 -0.260793,-1.39995 -0.426849,-1.92185 -0.142337,-0.54562 -0.308381,-0.98408 -0.498163,-1.3162 -0.189781,-0.33212 -0.379693,-0.59312 -0.569474,-0.7829 -0.166056,-0.18978 -0.320167,-0.33247 -0.462504,-0.42736 0.569346,-0.28467 1.079412,-0.64011 1.530141,-1.06712 0.450728,-0.45073 0.889706,-0.96079 1.316715,-1.53014 0.427008,-0.59306 0.842119,-1.24582 1.245402,-1.9575 0.403284,-0.71168 0.842261,-1.47081 1.316715,-2.27738 0.569346,-1.02008 1.114694,-1.82643 1.636594,-2.41949 0.5219,-0.61679 1.008093,-1.09105 1.458822,-1.42317 0.474454,-0.33212 0.901498,-0.5459 1.281062,-0.64079 0.379563,-0.11862 0.723585,-0.17777 1.031978,-0.17777 0.355837,0 0.533815,-0.15411 0.533815,-0.4625 0,-0.0949 -0.05915,-0.23758 -0.177766,-0.42737 -0.11861,-0.18978 -0.284655,-0.36724 -0.498162,-0.53329 -0.189776,-0.18979 -0.415493,-0.34441 -0.67644,-0.46302 -0.260953,-0.14234 -0.521953,-0.21343 -0.7829,-0.21343 -0.545619,0 -1.079035,0.095 -1.600934,0.28474 -0.5219,0.18978 -1.055833,0.498 -1.601453,0.925 -0.545625,0.42701 -1.126774,0.99675 -1.743565,1.70843 -0.61679,0.71168 -1.280962,1.58912 -1.992643,2.63291 -0.427009,0.61679 -0.87792,1.25761 -1.352374,1.92185 -0.474449,0.66423 -0.972581,1.29261 -1.494481,1.88567 -0.5219,0.59307 -1.079182,1.127 -1.672247,1.60145 -0.569345,0.47446 -1.174367,0.85376 -1.814877,1.13843 0.260947,-1.37591 0.474213,-2.55014 0.640269,-3.52278 0.166062,-0.99635 0.308751,-1.82656 0.427368,-2.4908 0.142336,-0.66423 0.272574,-1.18623 0.39119,-1.5658 0.118611,-0.37956 0.249367,-0.64056 0.391703,-0.78289 0.260953,-0.0712 0.545302,-0.17754 0.853694,-0.31988 0.308399,-0.14234 0.593265,-0.32031 0.854212,-0.53382 0.284673,-0.2135 0.509872,-0.45064 0.675928,-0.71158 0.189782,-0.28468 0.284738,-0.59341 0.284738,-0.92553 0,-0.47445 -0.154105,-0.85376 -0.462504,-1.13843 -0.308392,-0.28467 -0.735436,-0.42737 -1.281056,-0.42737 z m 63.268614,3.30936 c -0.40329,0 -0.78311,0.1069 -1.13895,0.3204 -0.35584,0.18978 -0.676,0.46271 -0.96067,0.81855 -0.26095,0.33212 -0.47421,0.71143 -0.64027,1.13843 -0.16605,0.42701 -0.24908,0.86599 -0.24908,1.31672 0,0.64051 0.1894,1.13864 0.56896,1.49448 0.37956,0.35584 0.83047,0.53382 1.35237,0.53382 0.37956,0 0.73552,-0.095 1.06764,-0.28474 0.35584,-0.2135 0.66405,-0.48591 0.925,-0.81803 0.28467,-0.35585 0.49846,-0.7476 0.64079,-1.17461 0.16606,-0.45073 0.24908,-0.91306 0.24908,-1.38751 0,-0.59307 -0.17798,-1.06785 -0.53381,-1.42369 -0.33212,-0.35584 -0.75917,-0.53382 -1.28106,-0.53382 z M 66.15807,172.3593 c 0.427009,0 0.640787,0.23765 0.640787,0.7121 0,0.37956 -0.118823,0.84189 -0.35605,1.38751 -0.237227,0.54562 -0.569316,1.07955 -0.996324,1.60145 -0.403284,0.49818 -0.889477,0.92522 -1.458822,1.28107 -0.569345,0.35583 -1.174367,0.53381 -1.814878,0.53381 0,-0.45073 0.118823,-0.99659 0.35605,-1.63711 0.237227,-0.64051 0.533509,-1.24553 0.889353,-1.81488 0.379563,-0.56934 0.806602,-1.05554 1.281056,-1.45882 0.474454,-0.40329 0.960654,-0.60513 1.458828,-0.60513 z m 55.83186,0 c 0.42701,0 0.64027,0.23765 0.64027,0.7121 0,0.37956 -0.11883,0.84189 -0.35605,1.38751 -0.23723,0.54562 -0.56932,1.07955 -0.99633,1.60145 -0.40328,0.49818 -0.88947,0.92522 -1.45882,1.28107 -0.56935,0.35583 -1.17437,0.53381 -1.81488,0.53381 0,-0.45073 0.11883,-0.99659 0.35605,-1.63711 0.23723,-0.64051 0.53351,-1.24553 0.88936,-1.81488 0.37956,-0.56934 0.8066,-1.05554 1.28105,-1.45882 0.47446,-0.40329 0.96117,-0.60513 1.45935,-0.60513 z" />
  </g>
</svg>
